<svg width="16" height="16" viewBox="0 0 16 16" fill="none" xmlns="http://www.w3.org/2000/svg">
<path fill-rule="evenodd" clip-rule="evenodd" d="M3.5235 8.0031e-07C2.84965 -2.05236e-05 2.28772 -3.83053e-05 1.84164 0.0599358C1.3708 0.123239 0.945697 0.262492 0.604095 0.604095C0.262492 0.945697 0.123239 1.3708 0.0599358 1.84164C-3.83053e-05 2.28772 -2.05236e-05 2.84963 8.0031e-07 3.52348V3.6015C-2.05236e-05 4.27535 -3.83053e-05 4.83728 0.0599358 5.28336C0.123239 5.75421 0.262492 6.17931 0.604095 6.52091C0.945697 6.86251 1.3708 7.00177 1.84164 7.06507C2.28772 7.12504 2.84963 7.12502 3.52348 7.125H3.6015C4.27535 7.12502 4.83728 7.12504 5.28336 7.06507C5.75421 7.00177 6.17931 6.86251 6.52091 6.52091C6.86251 6.17931 7.00177 5.75421 7.06507 5.28336C7.12504 4.83728 7.12502 4.27537 7.125 3.60152V3.52351C7.12502 2.84966 7.12504 2.28772 7.06507 1.84164C7.00177 1.3708 6.86251 0.945697 6.52091 0.604095C6.17931 0.262492 5.75421 0.123239 5.28336 0.0599358C4.83728 -3.83053e-05 4.27537 -2.05236e-05 3.60152 8.0031e-07H3.5235ZM1.39959 1.39959C1.49733 1.30185 1.64545 1.22144 1.99155 1.1749C2.35382 1.1262 2.83949 1.125 3.5625 1.125C4.28551 1.125 4.77118 1.1262 5.13346 1.1749C5.47955 1.22144 5.62768 1.30185 5.72541 1.39959C5.82315 1.49733 5.90357 1.64545 5.9501 1.99155C5.99881 2.35382 6 2.83949 6 3.5625C6 4.28551 5.99881 4.77118 5.9501 5.13346C5.90357 5.47955 5.82315 5.62768 5.72541 5.72541C5.62768 5.82315 5.47955 5.90357 5.13346 5.9501C4.77118 5.99881 4.28551 6 3.5625 6C2.83949 6 2.35382 5.99881 1.99155 5.9501C1.64545 5.90357 1.49733 5.82315 1.39959 5.72541C1.30185 5.62768 1.22144 5.47955 1.1749 5.13346C1.1262 4.77118 1.125 4.28551 1.125 3.5625C1.125 2.83949 1.1262 2.35382 1.1749 1.99155C1.22144 1.64545 1.30185 1.49733 1.39959 1.39959Z" fill="white"/>
<path d="M12.375 1.3125C12.375 1.00184 12.1232 0.750002 11.8125 0.750002C11.5018 0.750002 11.25 1.00184 11.25 1.3125V3H9.5625C9.25184 3 9 3.25184 9 3.5625C9 3.87316 9.25184 4.125 9.5625 4.125H11.25V5.8125C11.25 6.12316 11.5018 6.375 11.8125 6.375C12.1232 6.375 12.375 6.12316 12.375 5.8125V4.125H14.0625C14.3732 4.125 14.625 3.87316 14.625 3.5625C14.625 3.25184 14.3732 3 14.0625 3H12.375V1.3125Z" fill="white"/>
<path fill-rule="evenodd" clip-rule="evenodd" d="M11.7735 8.25H11.8515C12.5254 8.24998 13.0873 8.24996 13.5334 8.30994C14.0042 8.37324 14.4293 8.51249 14.7709 8.85409C15.1125 9.1957 15.2518 9.6208 15.3151 10.0916C15.375 10.5377 15.375 11.0996 15.375 11.7735V11.8515C15.375 12.5253 15.375 13.0873 15.3151 13.5334C15.2518 14.0042 15.1125 14.4293 14.7709 14.7709C14.4293 15.1125 14.0042 15.2518 13.5334 15.3151C13.0873 15.375 12.5254 15.375 11.8515 15.375H11.7735C11.0997 15.375 10.5377 15.375 10.0916 15.3151C9.6208 15.2518 9.1957 15.1125 8.85409 14.7709C8.51249 14.4293 8.37324 14.0042 8.30994 13.5334C8.24996 13.0873 8.24998 12.5254 8.25 11.8515V11.7735C8.24998 11.0996 8.24996 10.5377 8.30994 10.0916C8.37324 9.6208 8.51249 9.1957 8.85409 8.85409C9.1957 8.51249 9.6208 8.37324 10.0916 8.30994C10.5377 8.24996 11.0996 8.24998 11.7735 8.25ZM10.2415 9.4249C9.89545 9.47144 9.74733 9.55185 9.64959 9.64959C9.55185 9.74733 9.47144 9.89545 9.4249 10.2415C9.3762 10.6038 9.375 11.0895 9.375 11.8125C9.375 12.5355 9.3762 13.0212 9.4249 13.3835C9.47144 13.7296 9.55185 13.8777 9.64959 13.9754C9.74733 14.0732 9.89545 14.1536 10.2415 14.2001C10.6038 14.2488 11.0895 14.25 11.8125 14.25C12.5355 14.25 13.0212 14.2488 13.3835 14.2001C13.7296 14.1536 13.8777 14.0732 13.9754 13.9754C14.0732 13.8777 14.1536 13.7296 14.2001 13.3835C14.2488 13.0212 14.25 12.5355 14.25 11.8125C14.25 11.0895 14.2488 10.6038 14.2001 10.2415C14.1536 9.89545 14.0732 9.74733 13.9754 9.64959C13.8777 9.55185 13.7296 9.47144 13.3835 9.4249C13.0212 9.3762 12.5355 9.375 11.8125 9.375C11.0895 9.375 10.6038 9.3762 10.2415 9.4249Z" fill="white"/>
<path fill-rule="evenodd" clip-rule="evenodd" d="M3.5235 8.25C2.84964 8.24998 2.28773 8.24996 1.84164 8.30994C1.3708 8.37324 0.945697 8.51249 0.604095 8.85409C0.262492 9.1957 0.123239 9.6208 0.0599358 10.0916C-3.83053e-05 10.5377 -2.05236e-05 11.0996 8.0031e-07 11.7735V11.8515C-2.05236e-05 12.5254 -3.83053e-05 13.0873 0.0599358 13.5334C0.123239 14.0042 0.262492 14.4293 0.604095 14.7709C0.945697 15.1125 1.3708 15.2518 1.84164 15.3151C2.28772 15.375 2.84963 15.375 3.52348 15.375H3.6015C4.27535 15.375 4.83728 15.375 5.28336 15.3151C5.75421 15.2518 6.17931 15.1125 6.52091 14.7709C6.86251 14.4293 7.00177 14.0042 7.06507 13.5334C7.12504 13.0873 7.12502 12.5254 7.125 11.8515V11.7735C7.12502 11.0997 7.12504 10.5377 7.06507 10.0916C7.00177 9.6208 6.86251 9.1957 6.52091 8.85409C6.17931 8.51249 5.75421 8.37324 5.28336 8.30994C4.83728 8.24996 4.27536 8.24998 3.6015 8.25H3.5235ZM1.39959 9.64959C1.49733 9.55185 1.64545 9.47144 1.99155 9.4249C2.35382 9.3762 2.83949 9.375 3.5625 9.375C4.28551 9.375 4.77118 9.3762 5.13346 9.4249C5.47955 9.47144 5.62768 9.55185 5.72541 9.64959C5.82315 9.74733 5.90357 9.89545 5.9501 10.2415C5.99881 10.6038 6 11.0895 6 11.8125C6 12.5355 5.99881 13.0212 5.9501 13.3835C5.90357 13.7296 5.82315 13.8777 5.72541 13.9754C5.62768 14.0732 5.47955 14.1536 5.13346 14.2001C4.77118 14.2488 4.28551 14.25 3.5625 14.25C2.83949 14.25 2.35382 14.2488 1.99155 14.2001C1.64545 14.1536 1.49733 14.0732 1.39959 13.9754C1.30185 13.8777 1.22144 13.7296 1.1749 13.3835C1.1262 13.0212 1.125 12.5355 1.125 11.8125C1.125 11.0895 1.1262 10.6038 1.1749 10.2415C1.22144 9.89545 1.30185 9.74733 1.39959 9.64959Z" fill="white"/>
</svg>
