<svg width="18" height="18" viewBox="0 0 18 18" fill="none" xmlns="http://www.w3.org/2000/svg">
<path fill-rule="evenodd" clip-rule="evenodd" d="M9 3.5625C8.20469 3.5625 7.568 3.80847 6.04938 4.41592L3.94303 5.25846C3.18521 5.56159 2.66008 5.77244 2.31971 5.95088C2.28645 5.96832 2.25647 5.98469 2.2295 6C2.25647 6.01531 2.28645 6.03168 2.31971 6.04912C2.66008 6.22756 3.18521 6.43841 3.94303 6.74154L6.04938 7.58408C7.568 8.19153 8.20469 8.4375 9 8.4375C9.79531 8.4375 10.432 8.19153 11.9506 7.58408L14.057 6.74154C14.8148 6.43841 15.3399 6.22756 15.6803 6.04912C15.7136 6.03168 15.7435 6.01531 15.7705 6C15.7435 5.98469 15.7136 5.96832 15.6803 5.95088C15.3399 5.77244 14.8148 5.56159 14.057 5.25846L11.9506 4.41592C10.432 3.80847 9.79531 3.5625 9 3.5625ZM5.71832 3.33667C7.12591 2.77347 7.96558 2.4375 9 2.4375C10.0344 2.4375 10.8741 2.77347 12.2817 3.33667C12.3104 3.34815 12.3393 3.35972 12.3684 3.37138L14.5088 4.22752C15.2247 4.51389 15.8046 4.74582 16.2027 4.95451C16.4041 5.06012 16.5993 5.17986 16.7497 5.3242C16.9044 5.47251 17.0625 5.69743 17.0625 6C17.0625 6.30257 16.9044 6.52749 16.7497 6.6758C16.5993 6.82014 16.4041 6.93988 16.2027 7.04549C15.8046 7.25418 15.2247 7.48611 14.5088 7.77247L12.3684 8.62862C12.3393 8.64028 12.3104 8.65185 12.2817 8.66333C10.8741 9.22653 10.0344 9.5625 9 9.5625C7.96558 9.5625 7.12591 9.22653 5.71832 8.66333C5.68964 8.65185 5.66072 8.64028 5.63157 8.62862L3.49121 7.77248C2.77527 7.48611 2.1954 7.25418 1.79735 7.04549C1.5959 6.93988 1.40074 6.82014 1.25026 6.6758C1.09564 6.52749 0.9375 6.30257 0.9375 6C0.9375 5.69743 1.09564 5.47251 1.25025 5.3242C1.40074 5.17986 1.5959 5.06012 1.79735 4.95451C2.19541 4.74582 2.77528 4.51388 3.49122 4.22752L5.63157 3.37138C5.66072 3.35972 5.68964 3.34815 5.71832 3.33667ZM1.87422 8.58004L1.87696 8.58243C1.88026 8.58529 1.88642 8.59057 1.89542 8.59808C1.91342 8.61311 1.94281 8.6371 1.98359 8.66861C2.06515 8.73164 2.19217 8.82472 2.3646 8.93655C2.70948 9.16022 3.23564 9.45859 3.94303 9.74154L6.04938 10.5841C7.568 11.1915 8.20469 11.4375 9 11.4375C9.79531 11.4375 10.432 11.1915 11.9506 10.5841L14.057 9.74154C14.7644 9.45859 15.2905 9.16022 15.6354 8.93655C15.8078 8.82472 15.9348 8.73164 16.0164 8.66861C16.0572 8.6371 16.0866 8.61311 16.1046 8.59808C16.1136 8.59057 16.1197 8.58529 16.123 8.58243L16.1246 8.58109C16.125 8.58076 16.1254 8.58035 16.1258 8.58001C16.3571 8.37392 16.7117 8.39361 16.9187 8.62439C17.1262 8.85564 17.1069 9.21127 16.8756 9.41872L16.5 9C16.8756 9.41872 16.8757 9.41861 16.8756 9.41872L16.8746 9.41965L16.8733 9.42082L16.8698 9.42389L16.8595 9.43287C16.8512 9.44008 16.8399 9.44974 16.8256 9.46166C16.7971 9.48548 16.7566 9.51835 16.7043 9.55877C16.5997 9.63962 16.4475 9.75078 16.2475 9.88043C15.8477 10.1397 15.2568 10.4733 14.4748 10.7861L12.3684 11.6286C12.3393 11.6403 12.3104 11.6519 12.2817 11.6633C10.8741 12.2265 10.0344 12.5625 9 12.5625C7.96558 12.5625 7.12591 12.2265 5.71832 11.6633C5.68964 11.6519 5.66072 11.6403 5.63157 11.6286L3.52522 10.7861C2.74319 10.4733 2.15228 10.1397 1.75246 9.88043C1.55254 9.75078 1.40029 9.63962 1.29568 9.55877C1.24336 9.51835 1.20294 9.48548 1.1744 9.46166C1.16013 9.44974 1.14883 9.44008 1.14049 9.43287L1.13022 9.42389L1.12675 9.42082L1.12543 9.41965L1.12462 9.41893C1.1245 9.41882 1.12439 9.41872 1.5 9L1.12462 9.41893C0.893373 9.21148 0.87384 8.85564 1.08128 8.62439C1.28831 8.3936 1.64294 8.37392 1.87422 8.58004ZM16.1247 11.581C16.1251 11.5807 16.1254 11.5803 16.1258 11.58C16.3571 11.3739 16.7117 11.3936 16.9187 11.6244C17.1262 11.8556 17.1069 12.2113 16.8756 12.4187L16.5 12C16.8756 12.4187 16.8757 12.4186 16.8756 12.4187L16.8746 12.4196L16.8733 12.4208L16.8698 12.4239L16.8595 12.4329C16.8512 12.4401 16.8399 12.4497 16.8256 12.4617C16.7971 12.4855 16.7566 12.5183 16.7043 12.5588C16.5997 12.6396 16.4475 12.7508 16.2475 12.8804C15.8477 13.1397 15.2568 13.4733 14.4748 13.7861L12.3684 14.6286C12.3393 14.6403 12.3104 14.6519 12.2817 14.6633C10.8741 15.2265 10.0344 15.5625 9 15.5625C7.96558 15.5625 7.12591 15.2265 5.71832 14.6633C5.68964 14.6519 5.66072 14.6403 5.63157 14.6286L3.52522 13.7861C2.74319 13.4733 2.15228 13.1397 1.75246 12.8804C1.55254 12.7508 1.40029 12.6396 1.29568 12.5588C1.24336 12.5183 1.20294 12.4855 1.1744 12.4617C1.16013 12.4497 1.14883 12.4401 1.14049 12.4329L1.13022 12.4239L1.12675 12.4208L1.12543 12.4196L1.12462 12.4189C1.1245 12.4188 1.12439 12.4187 1.5 12L1.12462 12.4189C0.893373 12.2115 0.87384 11.8556 1.08128 11.6244C1.2883 11.3936 1.6429 11.3739 1.87418 11.58C1.87404 11.5799 1.87433 11.5801 1.87418 11.58C1.87432 11.5801 1.8749 11.5807 1.87505 11.5808C1.87493 11.5807 1.87516 11.5809 1.87505 11.5808L1.87696 11.5824C1.88026 11.5853 1.88642 11.5906 1.89542 11.5981C1.91342 11.6131 1.94281 11.6371 1.98359 11.6686C2.06515 11.7316 2.19217 11.8247 2.3646 11.9366C2.70948 12.1602 3.23564 12.4586 3.94303 12.7415L6.04938 13.5841C7.568 14.1915 8.20469 14.4375 9 14.4375C9.79531 14.4375 10.432 14.1915 11.9506 13.5841L14.057 12.7415C14.7644 12.4586 15.2905 12.1602 15.6354 11.9366C15.8078 11.8247 15.9348 11.7316 16.0164 11.6686C16.0572 11.6371 16.0866 11.6131 16.1046 11.5981C16.1136 11.5906 16.1197 11.5853 16.123 11.5824L16.1247 11.581Z" fill="white"/>
</svg>
