<svg width="22" height="22" viewBox="0 0 22 22" fill="none" xmlns="http://www.w3.org/2000/svg">
<path fill-rule="evenodd" clip-rule="evenodd" d="M10.75 0C10.1453 0 9.58845 0.150286 8.97878 0.402421C8.39008 0.645883 7.70633 1.00471 6.8549 1.45153L4.78739 2.53651C3.74242 3.08487 2.90616 3.52371 2.26047 3.95491C1.59154 4.40164 1.07632 4.87201 0.701122 5.50918C0.327181 6.14421 0.158958 6.83184 0.0782883 7.65072C-1.45957e-05 8.44558 -8.05681e-06 9.42315 1.68057e-07 10.6526V10.8474C-8.05682e-06 12.0768 -1.45957e-05 13.0544 0.0782883 13.8493C0.158958 14.6682 0.327181 15.3558 0.701122 15.9908C1.07632 16.628 1.59154 17.0984 2.26047 17.5451C2.90616 17.9763 3.74241 18.4151 4.78737 18.9635L6.85481 20.0484C7.70628 20.4953 8.39006 20.8541 8.97878 21.0976C9.58845 21.3497 10.1453 21.5 10.75 21.5C11.3547 21.5 11.9116 21.3497 12.5212 21.0976C13.1099 20.8541 13.7937 20.4953 14.6451 20.0485L16.7126 18.9635C17.7576 18.4151 18.5938 17.9763 19.2395 17.5451C19.9085 17.0984 20.4237 16.628 20.7989 15.9908C21.1728 15.3558 21.341 14.6682 21.4217 13.8493C21.5 13.0544 21.5 12.0769 21.5 10.8475V10.6525C21.5 9.42314 21.5 8.44557 21.4217 7.65072C21.341 6.83184 21.1728 6.14421 20.7989 5.50918C20.4237 4.87201 19.9085 4.40164 19.2395 3.95491C18.5938 3.52371 17.7576 3.08487 16.7126 2.5365L14.6451 1.45154C13.7937 1.00472 13.1099 0.645886 12.5212 0.402422C11.9116 0.150286 11.3547 0 10.75 0ZM7.5208 2.79608C8.41052 2.32917 9.034 2.0028 9.55203 1.78856C10.0562 1.58004 10.4105 1.5 10.75 1.5C11.0895 1.5 11.4438 1.58004 11.948 1.78856C12.466 2.0028 13.0895 2.32917 13.9792 2.79608L15.9792 3.84563C17.0689 4.41748 17.8345 4.82032 18.4065 5.20232C18.6887 5.39078 18.9104 5.56578 19.0895 5.74174L15.7588 7.40708L7.25895 2.93349L7.5208 2.79608ZM5.69466 3.75439L5.5208 3.84563C4.43111 4.41747 3.66553 4.82032 3.09352 5.20232C2.81131 5.39078 2.58956 5.56578 2.41054 5.74174L10.75 9.91147L14.1072 8.23289L5.90069 3.91369C5.82096 3.87173 5.75191 3.81743 5.69466 3.75439ZM1.68768 7.05737C1.63718 7.27125 1.59901 7.51413 1.57106 7.79778C1.50084 8.5106 1.5 9.41441 1.5 10.6915V10.8085C1.5 12.0856 1.50084 12.9894 1.57106 13.7022C1.63974 14.3994 1.77022 14.8502 1.99367 15.2297C2.21587 15.607 2.53727 15.9262 3.09352 16.2977C3.66553 16.6797 4.43111 17.0825 5.5208 17.6544L7.5208 18.7039C8.41052 19.1708 9.034 19.4972 9.55203 19.7114C9.7156 19.7791 9.86338 19.8332 10 19.8755V11.2135L1.68768 7.05737ZM11.5 19.8755C11.6366 19.8332 11.7844 19.7791 11.948 19.7114C12.466 19.4972 13.0895 19.1708 13.9792 18.7039L15.9792 17.6544C17.0689 17.0825 17.8345 16.6797 18.4065 16.2977C18.9627 15.9262 19.2841 15.607 19.5063 15.2297C19.7298 14.8502 19.8603 14.3994 19.9289 13.7022C19.9992 12.9894 20 12.0856 20 10.8085V10.6915C20 9.41441 19.9992 8.5106 19.9289 7.79778C19.901 7.51412 19.8628 7.27125 19.8123 7.05736L16.5 8.71352V11.75C16.5 12.1642 16.1642 12.5 15.75 12.5C15.3358 12.5 15 12.1642 15 11.75V9.46352L11.5 11.2135V19.8755Z" fill="black"/>
</svg>
