<svg width="22" height="18" viewBox="0 0 22 18" fill="none" xmlns="http://www.w3.org/2000/svg">
<path fill-rule="evenodd" clip-rule="evenodd" d="M17.0392 1.63976C16.0115 1.50159 14.6568 1.5 12.75 1.5L8.75 1.5C6.84318 1.5 5.48851 1.50159 4.46085 1.63976C3.45476 1.77503 2.87511 2.02869 2.4519 2.4519C2.02869 2.87511 1.77502 3.45476 1.63976 4.46085C1.50159 5.48851 1.5 6.84318 1.5 8.75C1.5 10.6568 1.50159 12.0115 1.63976 13.0392C1.77502 14.0452 2.02869 14.6249 2.4519 15.0481C2.87511 15.4713 3.45476 15.725 4.46085 15.8602C5.48851 15.9984 6.84318 16 8.75 16H12.75C14.6568 16 16.0115 15.9984 17.0392 15.8602C18.0452 15.725 18.6249 15.4713 19.0481 15.0481C19.4713 14.6249 19.725 14.0452 19.8602 13.0392C19.9984 12.0115 20 10.6568 20 8.75C20 6.84318 19.9984 5.48851 19.8602 4.46085C19.725 3.45476 19.4713 2.87511 19.0481 2.4519C18.6249 2.02869 18.0452 1.77502 17.0392 1.63976ZM17.239 0.153135C18.4114 0.310763 19.3604 0.64288 20.1088 1.39124C20.8571 2.13961 21.1892 3.08856 21.3469 4.26098C21.5 5.40019 21.5 6.85583 21.5 8.69359V8.80641C21.5 10.6442 21.5 12.0998 21.3469 13.239C21.1892 14.4114 20.8571 15.3604 20.1088 16.1088C19.3604 16.8571 18.4114 17.1892 17.239 17.3469C16.0998 17.5 14.6442 17.5 12.8064 17.5H8.69359C6.85583 17.5 5.40019 17.5 4.26098 17.3469C3.08856 17.1892 2.13961 16.8571 1.39124 16.1088C0.642881 15.3604 0.310764 14.4114 0.153135 13.239C-2.8044e-05 12.0998 -1.54718e-05 10.6442 3.23433e-07 8.80642V8.69358C-1.5591e-05 6.85583 -2.82824e-05 5.40019 0.153135 4.26098C0.310763 3.08856 0.64288 2.13961 1.39124 1.39124C2.13961 0.642881 3.08856 0.310764 4.26098 0.153136C5.40019 -2.78652e-05 6.85583 -1.5293e-05 8.69359 5.02247e-07L12.8064 3.23433e-07C14.6442 -1.5591e-05 16.0998 -2.82824e-05 17.239 0.153135ZM7 13.75C7 13.3358 7.33579 13 7.75 13H13.75C14.1642 13 14.5 13.3358 14.5 13.75C14.5 14.1642 14.1642 14.5 13.75 14.5H7.75C7.33579 14.5 7 14.1642 7 13.75Z" fill="black"/>
</svg>
