<svg width="22" height="22" viewBox="0 0 22 22" fill="none" xmlns="http://www.w3.org/2000/svg">
<path fill-rule="evenodd" clip-rule="evenodd" d="M6.00285 3.00547C6.84403 1.22951 8.65263 0 10.75 0C12.8474 0 14.656 1.22951 15.4971 3.00547C15.581 3.00184 15.6653 3 15.75 3C18.9256 3 21.5 5.57436 21.5 8.75C21.5 10.9306 20.2863 12.8262 18.5 13.8008L18.5 16.802C18.5 17.7005 18.5001 18.4497 18.4201 19.0445C18.3357 19.6723 18.15 20.2391 17.6945 20.6945C17.2391 21.15 16.6723 21.3357 16.0445 21.4201C15.4497 21.5001 14.7005 21.5 13.802 21.5H7.69801C6.79952 21.5 6.0503 21.5001 5.45552 21.4201C4.82773 21.3357 4.26093 21.15 3.80546 20.6945C3.34999 20.2391 3.16432 19.6723 3.07991 19.0445C2.99994 18.4497 2.99997 17.7005 3 16.802L3 13.8008C1.21371 12.8262 0 10.9306 0 8.75C0 5.57436 2.57436 3 5.75 3C5.83469 3 5.91899 3.00184 6.00285 3.00547ZM5.55262 4.5045C3.29704 4.60762 1.5 6.46895 1.5 8.75C1.5 10.4916 2.54769 11.9902 4.05028 12.6467C4.32345 12.766 4.5 13.0359 4.5 13.334V16.75C4.5 17.714 4.50159 18.3616 4.56654 18.8446C4.62858 19.3061 4.7358 19.5036 4.86612 19.6339C4.99643 19.7642 5.19393 19.8714 5.65539 19.9335C6.13843 19.9984 6.78599 20 7.75 20H13.75C14.714 20 15.3616 19.9984 15.8446 19.9335C16.3061 19.8714 16.5036 19.7642 16.6339 19.6339C16.7642 19.5036 16.8714 19.3061 16.9335 18.8446C16.9984 18.3616 17 17.714 17 16.75L17 13.334C17 13.0359 17.1765 12.766 17.4497 12.6467C18.9523 11.9902 20 10.4916 20 8.75C20 6.46895 18.203 4.60761 15.9474 4.5045C15.9821 4.74825 16 4.99718 16 5.25V5.75C16 6.16421 15.6642 6.5 15.25 6.5C14.8358 6.5 14.5 6.16421 14.5 5.75V5.25C14.5 4.82715 14.4303 4.42212 14.3024 4.04486C13.8002 2.56402 12.3984 1.5 10.75 1.5C9.10162 1.5 7.69981 2.56402 7.19763 4.04486C7.0697 4.42212 7 4.82715 7 5.25V5.75C7 6.16421 6.66421 6.5 6.25 6.5C5.83579 6.5 5.5 6.16421 5.5 5.75V5.25C5.5 4.99717 5.51792 4.74825 5.55262 4.5045ZM7 16.75C7 16.3358 7.33579 16 7.75 16H13.75C14.1642 16 14.5 16.3358 14.5 16.75C14.5 17.1642 14.1642 17.5 13.75 17.5H7.75C7.33579 17.5 7 17.1642 7 16.75Z" fill="black"/>
</svg>
