<svg width="22" height="22" viewBox="0 0 22 22" fill="none" xmlns="http://www.w3.org/2000/svg">
<path fill-rule="evenodd" clip-rule="evenodd" d="M10.75 1.5C5.64137 1.5 1.5 5.64137 1.5 10.75C1.5 15.8586 5.64137 20 10.75 20C15.8586 20 20 15.8586 20 10.75C20 5.64137 15.8586 1.5 10.75 1.5ZM0 10.75C0 4.81294 4.81294 0 10.75 0C16.6871 0 21.5 4.81294 21.5 10.75C21.5 16.6871 16.6871 21.5 10.75 21.5C4.81294 21.5 0 16.6871 0 10.75ZM10.75 4C11.1642 4 11.5 4.33579 11.5 4.75V5.06673C13.1304 5.35867 14.5 6.58361 14.5 8.25C14.5 8.66421 14.1642 9 13.75 9C13.3358 9 13 8.66421 13 8.25C13 7.57154 12.4359 6.85339 11.5 6.59748V10.0667C13.1304 10.3587 14.5 11.5836 14.5 13.25C14.5 14.9164 13.1304 16.1413 11.5 16.4333V16.75C11.5 17.1642 11.1642 17.5 10.75 17.5C10.3358 17.5 10 17.1642 10 16.75V16.4333C8.36957 16.1413 7 14.9164 7 13.25C7 12.8358 7.33579 12.5 7.75 12.5C8.16421 12.5 8.5 12.8358 8.5 13.25C8.5 13.9285 9.0641 14.6466 10 14.9025V11.4333C8.36957 11.1413 7 9.91639 7 8.25C7 6.58361 8.36957 5.35867 10 5.06673V4.75C10 4.33579 10.3358 4 10.75 4ZM10 6.59748C9.0641 6.85339 8.5 7.57154 8.5 8.25C8.5 8.92846 9.0641 9.64661 10 9.90252V6.59748ZM11.5 11.5975V14.9025C12.4359 14.6466 13 13.9285 13 13.25C13 12.5715 12.4359 11.8534 11.5 11.5975Z" fill="black"/>
</svg>
