<svg width="20" height="20" viewBox="0 0 20 20" fill="none" xmlns="http://www.w3.org/2000/svg">
<path d="M6.45866 7.50033C6.45866 7.15515 6.17884 6.87533 5.83366 6.87533C5.48848 6.87533 5.20866 7.15515 5.20866 7.50033V15.0003C5.20866 15.3455 5.48848 15.6253 5.83366 15.6253C6.17884 15.6253 6.45866 15.3455 6.45866 15.0003V7.50033Z" fill="#6F6F6F"/>
<path d="M10.0003 4.37533C10.3455 4.37533 10.6253 4.65515 10.6253 5.00033V15.0003C10.6253 15.3455 10.3455 15.6253 10.0003 15.6253C9.65515 15.6253 9.37533 15.3455 9.37533 15.0003V5.00033C9.37533 4.65515 9.65515 4.37533 10.0003 4.37533Z" fill="#6F6F6F"/>
<path d="M14.792 10.8337C14.792 10.4885 14.5122 10.2087 14.167 10.2087C13.8218 10.2087 13.542 10.4885 13.542 10.8337V15.0003C13.542 15.3455 13.8218 15.6253 14.167 15.6253C14.5122 15.6253 14.792 15.3455 14.792 15.0003V10.8337Z" fill="#6F6F6F"/>
<path fill-rule="evenodd" clip-rule="evenodd" d="M9.95251 1.04199C8.02885 1.04198 6.52132 1.04197 5.34508 1.20011C4.14113 1.36198 3.19111 1.69976 2.44544 2.44544C1.69976 3.19111 1.36198 4.14113 1.20011 5.34508C1.04197 6.52132 1.04198 8.02885 1.04199 9.95251V10.0481C1.04198 11.9718 1.04197 13.4793 1.20011 14.6556C1.36198 15.8595 1.69976 16.8095 2.44544 17.5552C3.19111 18.3009 4.14113 18.6387 5.34508 18.8005C6.52132 18.9587 8.02885 18.9587 9.95252 18.9587H10.0481C11.9718 18.9587 13.4793 18.9587 14.6556 18.8005C15.8595 18.6387 16.8095 18.3009 17.5552 17.5552C18.3009 16.8095 18.6387 15.8595 18.8005 14.6556C18.9587 13.4793 18.9587 11.9718 18.9587 10.0481V9.95252C18.9587 8.02885 18.9587 6.52132 18.8005 5.34508C18.6387 4.14113 18.3009 3.19111 17.5552 2.44544C16.8095 1.69976 15.8595 1.36198 14.6556 1.20011C13.4793 1.04197 11.9718 1.04198 10.0481 1.04199H9.95251ZM3.32932 3.32932C3.80404 2.85461 4.4463 2.5822 5.51164 2.43897C6.59495 2.29332 8.01847 2.29199 10.0003 2.29199C11.9822 2.29199 13.4057 2.29332 14.489 2.43897C15.5543 2.5822 16.1966 2.85461 16.6713 3.32932C17.146 3.80404 17.4185 4.4463 17.5617 5.51164C17.7073 6.59495 17.7087 8.01847 17.7087 10.0003C17.7087 11.9822 17.7073 13.4057 17.5617 14.489C17.4185 15.5543 17.146 16.1966 16.6713 16.6713C16.1966 17.146 15.5543 17.4185 14.489 17.5617C13.4057 17.7073 11.9822 17.7087 10.0003 17.7087C8.01847 17.7087 6.59495 17.7073 5.51164 17.5617C4.4463 17.4185 3.80404 17.146 3.32932 16.6713C2.85461 16.1966 2.5822 15.5543 2.43897 14.489C2.29332 13.4057 2.29199 11.9822 2.29199 10.0003C2.29199 8.01847 2.29332 6.59495 2.43897 5.51164C2.5822 4.4463 2.85461 3.80404 3.32932 3.32932Z" fill="#6F6F6F"/>
</svg>
