<svg width="20" height="20" viewBox="0 0 20 20" fill="none" xmlns="http://www.w3.org/2000/svg">
<path fill-rule="evenodd" clip-rule="evenodd" d="M10.0008 1.04199C6.43401 1.04199 3.54251 3.93349 3.54251 7.50033V8.08708C3.54251 8.66785 3.37061 9.23562 3.04845 9.71885L2.09128 11.1546C0.980371 12.821 1.82846 15.086 3.76062 15.6129C4.3903 15.7847 5.02529 15.9299 5.66396 16.0487L5.66554 16.053C6.30637 17.7629 8.01913 18.9587 10.0008 18.9587C11.9825 18.9587 13.6952 17.7629 14.336 16.053L14.3376 16.0487C14.9763 15.9299 15.6114 15.7847 16.2411 15.6129C18.1732 15.086 19.0213 12.821 17.9104 11.1546L16.9532 9.71885C16.6311 9.23562 16.4592 8.66785 16.4592 8.08708V7.50033C16.4592 3.93349 13.5677 1.04199 10.0008 1.04199ZM12.8145 16.2811C10.9454 16.5045 9.05618 16.5044 7.18706 16.2811C7.77952 17.1324 8.80999 17.7087 10.0008 17.7087C11.1916 17.7087 12.2221 17.1324 12.8145 16.2811ZM4.79251 7.50033C4.79251 4.62384 7.12436 2.29199 10.0008 2.29199C12.8773 2.29199 15.2092 4.62384 15.2092 7.50033V8.08708C15.2092 8.91463 15.4541 9.72366 15.9132 10.4122L16.8703 11.848C17.508 12.8044 17.0212 14.1045 15.9122 14.407C12.042 15.4625 7.95973 15.4625 4.08952 14.407C2.98049 14.1045 2.4937 12.8044 3.13135 11.848L4.08852 10.4122C4.54756 9.72366 4.79251 8.91463 4.79251 8.08708V7.50033Z" fill="black"/>
</svg>
