<svg width="18" height="15" viewBox="0 0 18 15" fill="none" xmlns="http://www.w3.org/2000/svg">
<path fill-rule="evenodd" clip-rule="evenodd" d="M7.24465 2.68013e-07H10.672C12.2035 -1.29443e-05 13.4165 -2.34693e-05 14.3659 0.127613C15.3429 0.258969 16.1337 0.535734 16.7573 1.15937C17.3809 1.78301 17.6577 2.5738 17.7891 3.55081C17.8644 4.11154 17.8953 4.76425 17.9079 5.52023C17.9137 5.5543 17.9167 5.5893 17.9167 5.625C17.9167 5.65438 17.9146 5.68328 17.9107 5.71158C17.9167 6.18302 17.9167 6.69319 17.9167 7.24466V7.33868C17.9167 8.87014 17.9167 10.0832 17.7891 11.0325C17.6577 12.0095 17.3809 12.8003 16.7573 13.424C16.1337 14.0476 15.3429 14.3244 14.3659 14.4557C13.4165 14.5834 12.2035 14.5833 10.672 14.5833H7.24466C5.71319 14.5833 4.50016 14.5834 3.55081 14.4557C2.5738 14.3244 1.78301 14.0476 1.15937 13.424C0.535734 12.8003 0.258969 12.0095 0.127613 11.0325C-2.34693e-05 10.0832 -1.29436e-05 8.87015 2.68804e-07 7.33868V7.24465C-4.49957e-06 6.69319 -8.87046e-06 6.18301 0.00594692 5.71157C0.00202673 5.68327 5.66827e-07 5.65437 5.66827e-07 5.625C5.66827e-07 5.5893 0.00299322 5.55431 0.00874124 5.52024C0.0213683 4.76426 0.0522249 4.11154 0.127613 3.55081C0.258969 2.5738 0.535734 1.78301 1.15937 1.15937C1.78301 0.535734 2.5738 0.258969 3.55081 0.127613C4.50016 -2.34693e-05 5.71319 -1.29443e-05 7.24465 2.68013e-07ZM1.25166 6.25C1.25007 6.57366 1.25 6.92008 1.25 7.29167C1.25 8.88068 1.25133 10.0096 1.36647 10.866C1.47919 11.7044 1.69058 12.1874 2.04325 12.5401C2.39593 12.8928 2.87897 13.1041 3.71737 13.2169C4.57376 13.332 5.70265 13.3333 7.29167 13.3333H10.625C12.214 13.3333 13.3429 13.332 14.1993 13.2169C15.0377 13.1041 15.5207 12.8928 15.8734 12.5401C16.2261 12.1874 16.4375 11.7044 16.5502 10.866C16.6653 10.0096 16.6667 8.88068 16.6667 7.29167C16.6667 6.92008 16.6666 6.57366 16.665 6.25H1.25166ZM16.6449 5H1.27173C1.28803 4.51106 1.31655 4.08861 1.36647 3.71737C1.47919 2.87897 1.69058 2.39593 2.04325 2.04325C2.39593 1.69058 2.87897 1.47919 3.71737 1.36647C4.57376 1.25133 5.70265 1.25 7.29167 1.25H10.625C12.214 1.25 13.3429 1.25133 14.1993 1.36647C15.0377 1.47919 15.5207 1.69058 15.8734 2.04325C16.2261 2.39593 16.4375 2.87897 16.5502 3.71737C16.6001 4.08861 16.6286 4.51106 16.6449 5ZM3.33333 10.625C3.33333 10.2798 3.61316 10 3.95833 10H7.29167C7.63685 10 7.91667 10.2798 7.91667 10.625C7.91667 10.9702 7.63685 11.25 7.29167 11.25H3.95833C3.61316 11.25 3.33333 10.9702 3.33333 10.625ZM8.75 10.625C8.75 10.2798 9.02982 10 9.375 10H10.625C10.9702 10 11.25 10.2798 11.25 10.625C11.25 10.9702 10.9702 11.25 10.625 11.25H9.375C9.02982 11.25 8.75 10.9702 8.75 10.625Z" fill="black"/>
</svg>
