<svg width="20" height="20" viewBox="0 0 20 20" fill="none" xmlns="http://www.w3.org/2000/svg">
<path fill-rule="evenodd" clip-rule="evenodd" d="M15.1752 4.85998C14.5239 4.79372 13.6834 4.79297 12.5 4.79297L7.50002 4.79297C6.31663 4.79297 5.47613 4.79373 4.82481 4.85998C4.18395 4.92518 3.79591 5.04858 3.49535 5.24941C3.19963 5.447 2.94572 5.70091 2.74812 5.99663C2.54729 6.2972 2.42389 6.68523 2.3587 7.3261C2.29244 7.97741 2.29169 8.81791 2.29169 10.0013C2.29169 11.1847 2.29244 12.0252 2.3587 12.6765C2.42389 13.3174 2.54729 13.7054 2.74812 14.006C2.94572 14.3017 3.19963 14.5556 3.49535 14.7532C3.79591 14.954 4.18395 15.0774 4.82481 15.1426C5.47613 15.2089 6.31663 15.2096 7.50002 15.2096H12.5C13.6834 15.2096 14.5239 15.2089 15.1752 15.1426C15.8161 15.0774 16.2041 14.954 16.5047 14.7532C16.8004 14.5556 17.0543 14.3017 17.2519 14.006C17.4527 13.7054 17.5761 13.3174 17.6413 12.6765C17.7076 12.0252 17.7084 11.1847 17.7084 10.0013C17.7084 8.81791 17.7076 7.97741 17.6413 7.3261C17.5761 6.68523 17.4527 6.29719 17.2519 5.99663C17.0543 5.70091 16.8004 5.447 16.5047 5.24941C16.2041 5.04858 15.8161 4.92517 15.1752 4.85998ZM15.3017 3.6164C16.0414 3.69165 16.659 3.84913 17.1992 4.21007C17.6314 4.49886 18.0025 4.86996 18.2913 5.30217C18.6522 5.84235 18.8097 6.45989 18.8849 7.19959C18.9584 7.92156 18.9584 8.82565 18.9584 9.96667V10.0359C18.9584 11.177 18.9584 12.081 18.8849 12.803C18.8097 13.5427 18.6522 14.1603 18.2913 14.7004C18.0025 15.1326 17.6314 15.5037 17.1992 15.7925C16.659 16.1535 16.0414 16.311 15.3017 16.3862C14.5798 16.4596 13.6757 16.4596 12.5347 16.4596H7.46535C6.32435 16.4596 5.42027 16.4596 4.69831 16.3862C3.9586 16.311 3.34107 16.1535 2.80089 15.7925C2.36868 15.5037 1.99758 15.1326 1.70879 14.7004C1.34785 14.1603 1.19037 13.5427 1.11512 12.803C1.04167 12.0811 1.04168 11.177 1.04169 10.036V9.96665C1.04168 8.82564 1.04167 7.92155 1.11512 7.19959C1.19037 6.45989 1.34785 5.84235 1.70879 5.30217C1.99758 4.86996 2.36868 4.49886 2.80089 4.21007C3.34107 3.84913 3.9586 3.69165 4.69831 3.6164C5.42027 3.54296 6.32436 3.54296 7.46536 3.54297L12.5347 3.54297C13.6757 3.54296 14.5798 3.54296 15.3017 3.6164ZM4.58335 6.8763C4.92853 6.8763 5.20835 7.15613 5.20835 7.5013L5.20835 12.5013C5.20835 12.8465 4.92853 13.1263 4.58335 13.1263C4.23818 13.1263 3.95835 12.8465 3.95835 12.5013L3.95835 7.5013C3.95835 7.15613 4.23818 6.8763 4.58335 6.8763ZM10 8.1263C8.96449 8.1263 8.12502 8.96577 8.12502 10.0013C8.12502 11.0368 8.96449 11.8763 10 11.8763C11.0356 11.8763 11.875 11.0368 11.875 10.0013C11.875 8.96577 11.0356 8.1263 10 8.1263ZM6.87502 10.0013C6.87502 8.27541 8.27413 6.8763 10 6.8763C11.7259 6.8763 13.125 8.27541 13.125 10.0013C13.125 11.7272 11.7259 13.1263 10 13.1263C8.27413 13.1263 6.87502 11.7272 6.87502 10.0013ZM15.4167 6.8763C15.7619 6.8763 16.0417 7.15613 16.0417 7.5013V12.5013C16.0417 12.8465 15.7619 13.1263 15.4167 13.1263C15.0715 13.1263 14.7917 12.8465 14.7917 12.5013V7.5013C14.7917 7.15613 15.0715 6.8763 15.4167 6.8763Z" fill="black"/>
</svg>
