<svg width="18" height="15" viewBox="0 0 18 15" fill="none" xmlns="http://www.w3.org/2000/svg">
<path fill-rule="evenodd" clip-rule="evenodd" d="M8.95833 1.25C8.07466 1.25 7.36723 1.5233 5.67987 2.19824L3.33948 3.1344C2.49745 3.47121 1.91398 3.70549 1.53579 3.90376C1.49883 3.92314 1.46553 3.94132 1.43556 3.95833C1.46553 3.97534 1.49883 3.99353 1.53579 4.01291C1.91398 4.21118 2.49745 4.44546 3.33948 4.78227L5.67987 5.71842C7.36723 6.39337 8.07466 6.66667 8.95833 6.66667C9.84201 6.66667 10.5494 6.39337 12.2368 5.71842L14.5772 4.78227C15.4192 4.44546 16.0027 4.21118 16.3809 4.01291C16.4178 3.99353 16.4511 3.97534 16.4811 3.95833C16.4511 3.94132 16.4178 3.92313 16.3809 3.90376C16.0027 3.70549 15.4192 3.47121 14.5772 3.1344L12.2368 2.19824C10.5494 1.5233 9.84201 1.25 8.95833 1.25ZM5.31202 0.999083C6.87601 0.373299 7.80897 0 8.95833 0C10.1077 0 11.0407 0.373298 12.6046 0.99908C12.6365 1.01183 12.6686 1.02469 12.701 1.03765L15.0792 1.98891C15.8747 2.3071 16.519 2.5648 16.9613 2.79668C17.1851 2.91402 17.402 3.04706 17.5692 3.20745C17.741 3.37223 17.9167 3.62215 17.9167 3.95833C17.9167 4.29452 17.741 4.54443 17.5692 4.70922C17.402 4.8696 17.1851 5.00264 16.9613 5.11999C16.519 5.35186 15.8747 5.60957 15.0792 5.92775L12.701 6.87902C12.6686 6.89198 12.6365 6.90484 12.6046 6.91759C11.0407 7.54337 10.1077 7.91667 8.95833 7.91667C7.80897 7.91667 6.87601 7.54337 5.31202 6.91759C5.28016 6.90484 5.24803 6.89198 5.21563 6.87902L2.83746 5.92775C2.04197 5.60957 1.39767 5.35186 0.955388 5.11999C0.731554 5.00264 0.514712 4.8696 0.347506 4.70922C0.175706 4.54443 0 4.29452 0 3.95833C0 3.62215 0.175706 3.37223 0.347506 3.20745C0.514712 3.04706 0.731554 2.91402 0.955388 2.79668C1.39767 2.5648 2.04198 2.30709 2.83747 1.98891L5.21563 1.03765C5.24803 1.02469 5.28015 1.01183 5.31202 0.999083ZM1.0408 6.82504L1.04385 6.8277C1.04751 6.83088 1.05435 6.83674 1.06435 6.84509C1.08436 6.86179 1.11702 6.88844 1.16232 6.92345C1.25295 6.99349 1.39407 7.09692 1.58566 7.22117C1.96887 7.46969 2.55349 7.80121 3.33948 8.1156L5.67987 9.05176C7.36723 9.7267 8.07466 10 8.95833 10C9.84201 10 10.5494 9.7267 12.2368 9.05176L14.5772 8.1156C15.3632 7.80121 15.9478 7.46969 16.331 7.22117C16.5226 7.09692 16.6637 6.99349 16.7543 6.92345C16.7997 6.88844 16.8323 6.86179 16.8523 6.84509C16.8623 6.83674 16.8692 6.83088 16.8728 6.8277L16.8746 6.82621C16.875 6.82584 16.8755 6.82539 16.8759 6.82501C17.1329 6.59602 17.5269 6.6179 17.7569 6.87432C17.9874 7.13127 17.966 7.52641 17.709 7.75691L17.2917 7.29167C17.709 7.75691 17.7091 7.75679 17.709 7.75691L17.7079 7.75794L17.7064 7.75924L17.7025 7.76266L17.6911 7.77263C17.6819 7.78065 17.6693 7.79138 17.6534 7.80462C17.6217 7.83109 17.5768 7.86761 17.5187 7.91253C17.4025 8.00235 17.2333 8.12587 17.0112 8.26993C16.5669 8.55803 15.9103 8.92863 15.0414 9.2762L12.701 10.2124C12.6686 10.2253 12.6365 10.2382 12.6046 10.2509C11.0407 10.8767 10.1077 11.25 8.95833 11.25C7.80897 11.25 6.87601 10.8767 5.31202 10.2509C5.28016 10.2382 5.24803 10.2253 5.21563 10.2124L2.87524 9.2762C2.00632 8.92863 1.34976 8.55803 0.905515 8.26993C0.683379 8.12587 0.51421 8.00235 0.397973 7.91253C0.339847 7.86761 0.294932 7.83109 0.263221 7.80462C0.247365 7.79138 0.234808 7.78065 0.225548 7.77263L0.214129 7.76266L0.210274 7.75924L0.20881 7.75794L0.207914 7.75714C0.207783 7.75702 0.207654 7.75691 0.625 7.29167L0.207914 7.75714C-0.0490304 7.52665 -0.0707329 7.13127 0.159761 6.87432C0.389792 6.61789 0.783818 6.59602 1.0408 6.82504ZM16.8747 10.1595C16.8751 10.1591 16.8755 10.1587 16.8759 10.1583C17.1329 9.92936 17.5269 9.95123 17.7569 10.2077C17.9874 10.4646 17.966 10.8597 17.709 11.0902L17.2917 10.625C17.709 11.0902 17.7091 11.0901 17.709 11.0902L17.7079 11.0913L17.7064 11.0926L17.7025 11.096L17.6911 11.106C17.6819 11.114 17.6693 11.1247 17.6534 11.1379C17.6217 11.1644 17.5768 11.2009 17.5187 11.2459C17.4025 11.3357 17.2333 11.4592 17.0112 11.6033C16.5669 11.8914 15.9103 12.262 15.0414 12.6095L12.701 13.5457C12.6686 13.5586 12.6365 13.5715 12.6046 13.5843C11.0407 14.21 10.1077 14.5833 8.95833 14.5833C7.80897 14.5833 6.87601 14.21 5.31202 13.5843C5.28016 13.5715 5.24803 13.5586 5.21563 13.5457L2.87524 12.6095C2.00632 12.262 1.34976 11.8914 0.905515 11.6033C0.683379 11.4592 0.51421 11.3357 0.397973 11.2459C0.339847 11.2009 0.294932 11.1644 0.263221 11.1379C0.247365 11.1247 0.234808 11.114 0.225548 11.106L0.214129 11.096L0.210274 11.0926L0.20881 11.0913L0.207914 11.0905C0.207783 11.0904 0.207654 11.0902 0.625 10.625L0.207914 11.0905C-0.0490304 10.86 -0.0707329 10.4646 0.159761 10.2077C0.38978 9.95124 0.783776 9.92936 1.04076 10.1583C1.0406 10.1582 1.04092 10.1585 1.04076 10.1583C1.04092 10.1585 1.04156 10.1591 1.04172 10.1592C1.04159 10.1591 1.04185 10.1593 1.04172 10.1592L1.04385 10.161C1.04751 10.1642 1.05435 10.1701 1.06435 10.1784C1.08436 10.1951 1.11702 10.2218 1.16232 10.2568C1.25295 10.3268 1.39407 10.4302 1.58566 10.5545C1.96887 10.803 2.55349 11.1345 3.33948 11.4489L5.67987 12.3851C7.36723 13.06 8.07466 13.3333 8.95833 13.3333C9.84201 13.3333 10.5494 13.06 12.2368 12.3851L14.5772 11.4489C15.3632 11.1345 15.9478 10.803 16.331 10.5545C16.5226 10.4302 16.6637 10.3268 16.7543 10.2568C16.7997 10.2218 16.8323 10.1951 16.8523 10.1784C16.8623 10.1701 16.8692 10.1642 16.8728 10.161L16.8747 10.1595Z" fill="#6F6F6F"/>
</svg>
