<svg width="20" height="20" viewBox="0 0 20 20" fill="none" xmlns="http://www.w3.org/2000/svg">
<path fill-rule="evenodd" clip-rule="evenodd" d="M10.0003 2.29199C5.74313 2.29199 2.29199 5.74313 2.29199 10.0003C2.29199 11.2345 2.5816 12.3993 3.09599 13.4321C3.30244 13.8466 3.38194 14.3422 3.25169 14.829L2.75535 16.6841C2.66419 17.0248 2.97588 17.3365 3.31657 17.2453L5.1716 16.749C5.65843 16.6187 6.15408 16.6982 6.56858 16.9047C7.60133 17.4191 8.76611 17.7087 10.0003 17.7087C14.2575 17.7087 17.7087 14.2575 17.7087 10.0003C17.7087 5.74313 14.2575 2.29199 10.0003 2.29199ZM1.04199 10.0003C1.04199 5.05277 5.05277 1.04199 10.0003 1.04199C14.9479 1.04199 18.9587 5.05277 18.9587 10.0003C18.9587 14.9479 14.9479 18.9587 10.0003 18.9587C8.5684 18.9587 7.21326 18.6222 6.01128 18.0236C5.83192 17.9342 5.64877 17.9153 5.49469 17.9565L3.63966 18.4528C2.3698 18.7926 1.20805 17.6308 1.54782 16.361L2.04416 14.506C2.08539 14.3519 2.06644 14.1687 1.9771 13.9894C1.37841 12.7874 1.04199 11.4322 1.04199 10.0003ZM6.04199 8.75033C6.04199 8.40515 6.32181 8.12533 6.66699 8.12533H13.3337C13.6788 8.12533 13.9587 8.40515 13.9587 8.75033C13.9587 9.0955 13.6788 9.37533 13.3337 9.37533H6.66699C6.32181 9.37533 6.04199 9.0955 6.04199 8.75033ZM6.04199 11.667C6.04199 11.3218 6.32181 11.042 6.66699 11.042H11.2503C11.5955 11.042 11.8753 11.3218 11.8753 11.667C11.8753 12.0122 11.5955 12.292 11.2503 12.292H6.66699C6.32181 12.292 6.04199 12.0122 6.04199 11.667Z" fill="black"/>
</svg>
