<svg width="18" height="18" viewBox="0 0 18 18" fill="none" xmlns="http://www.w3.org/2000/svg">
<path fill-rule="evenodd" clip-rule="evenodd" d="M7.11073 3.4234C6.78343 2.55632 6.09857 2.05244 5.41824 2.06267C4.50372 2.07642 3.58963 3.04983 3.61229 4.49058L3.6124 4.49771L3.58822 7.01085C3.58794 7.03984 3.58769 7.06849 3.58745 7.09681C3.58327 7.57922 3.57993 7.96417 3.43993 8.31612C3.35952 8.51826 3.23919 8.69256 3.09999 8.86408C2.96555 9.02973 2.78934 9.2213 2.57765 9.45144L2.56588 9.46424C2.14286 9.92414 2.0625 10.1358 2.0625 10.3091C2.0625 10.4393 2.1081 10.5956 2.32198 10.8697C2.54557 11.1562 2.89119 11.4958 3.40735 12.0004L6.08393 14.6174C6.59991 15.1219 6.94748 15.4601 7.241 15.679C7.52104 15.888 7.68695 15.9375 7.83195 15.9375C7.97695 15.9375 8.14286 15.888 8.4229 15.679C8.71642 15.4601 9.06399 15.1219 9.57997 14.6174L14.6655 9.64517C16.3615 7.98691 16.3615 5.30369 14.6655 3.64543C12.9624 1.98025 10.196 1.98025 8.49285 3.64543L7.42222 4.69222C7.20009 4.9094 6.84396 4.90539 6.62677 4.68326C6.40959 4.46113 6.4136 4.105 6.63573 3.88782L7.11073 3.4234ZM7.96911 2.60019C7.45094 1.62215 6.52428 0.920916 5.40133 0.937798C3.66003 0.963976 2.46184 2.67157 2.48732 4.50088L2.46327 7.00002C2.45739 7.61113 2.44697 7.76863 2.39459 7.90031C2.3747 7.95032 2.33404 8.0226 2.22647 8.15515C2.11662 8.2905 1.96433 8.45644 1.73787 8.70264C1.29172 9.1877 0.9375 9.67763 0.9375 10.3091C0.9375 10.792 1.14425 11.1891 1.43507 11.5618C1.71084 11.9151 2.11201 12.3074 2.5928 12.7774L5.32513 15.4489C5.80621 15.9193 6.20725 16.3114 6.56832 16.5808C6.94977 16.8653 7.34979 17.0625 7.83195 17.0625C8.31411 17.0625 8.71413 16.8653 9.09558 16.5808C9.45665 16.3114 9.85769 15.9193 10.3388 15.4489L15.452 10.4496C17.5993 8.35001 17.5993 4.94059 15.452 2.84103C13.3972 0.832004 10.1215 0.751726 7.96911 2.60019ZM4.48551 9.65412C4.70269 9.432 5.05882 9.42798 5.28095 9.64517L8.49285 12.7855C8.71498 13.0027 8.71899 13.3589 8.50181 13.581C8.28463 13.8031 7.92849 13.8071 7.70636 13.5899L4.49447 10.4496C4.27234 10.2324 4.26833 9.87625 4.48551 9.65412Z" fill="white"/>
</svg>
