<svg width="18" height="18" viewBox="0 0 18 18" fill="none" xmlns="http://www.w3.org/2000/svg">
<path d="M8.99999 5.4375C9.31065 5.4375 9.56249 5.68934 9.56249 6V9.75C9.56249 10.0607 9.31065 10.3125 8.99999 10.3125C8.68933 10.3125 8.43749 10.0607 8.43749 9.75V6C8.43749 5.68934 8.68933 5.4375 8.99999 5.4375Z" fill="white"/>
<path d="M8.99999 12.75C9.4142 12.75 9.74999 12.4142 9.74999 12C9.74999 11.5858 9.4142 11.25 8.99999 11.25C8.58577 11.25 8.24999 11.5858 8.24999 12C8.24999 12.4142 8.58577 12.75 8.99999 12.75Z" fill="white"/>
<path fill-rule="evenodd" clip-rule="evenodd" d="M6.2208 3.35732C7.02473 2.3362 7.87636 1.6875 8.99998 1.6875C10.1236 1.6875 10.9752 2.3362 11.7792 3.35732C12.5698 4.36158 13.4077 5.84717 14.4797 7.7479L14.8063 8.327C15.6925 9.89823 16.3925 11.1392 16.7601 12.1353C17.1358 13.1532 17.2251 14.0774 16.6567 14.8927C16.1052 15.6838 15.185 16.0075 14.0244 16.1603C12.8682 16.3125 11.3134 16.3125 9.31862 16.3125H8.68138C6.68664 16.3125 5.13179 16.3125 3.97561 16.1603C2.81498 16.0075 1.89477 15.6838 1.34324 14.8927C0.774885 14.0774 0.864137 13.1532 1.23985 12.1353C1.6075 11.1392 2.30744 9.89824 3.19364 8.32702L3.52021 7.748C4.59225 5.84722 5.43014 4.3616 6.2208 3.35732ZM7.10473 4.05324C6.37422 4.98111 5.57778 6.38991 4.47371 8.34745L4.20097 8.83104C3.2813 10.4616 2.62776 11.624 2.29525 12.5248C1.96703 13.4141 2.01253 13.8856 2.26611 14.2493C2.53652 14.6372 3.04405 14.903 4.12244 15.0449C5.19643 15.1863 6.67695 15.1875 8.72724 15.1875H9.27273C11.323 15.1875 12.8035 15.1863 13.8775 15.0449C14.9559 14.903 15.4635 14.6372 15.7339 14.2493C15.9874 13.8856 16.0329 13.4141 15.7047 12.5248C15.3722 11.624 14.7187 10.4616 13.799 8.83103L13.5263 8.34745C12.4222 6.3899 11.6257 4.98111 10.8952 4.05324C10.1715 3.13399 9.60942 2.8125 8.99998 2.8125C8.39054 2.8125 7.82845 3.13399 7.10473 4.05324Z" fill="white"/>
</svg>
