<svg width="20" height="20" viewBox="0 0 20 20" fill="none" xmlns="http://www.w3.org/2000/svg">
<path d="M7.5004 14.3751C7.15522 14.3751 6.8754 14.655 6.8754 15.0001C6.8754 15.3453 7.15522 15.6251 7.5004 15.6251H12.5004C12.8456 15.6251 13.1254 15.3453 13.1254 15.0001C13.1254 14.655 12.8456 14.3751 12.5004 14.3751H7.5004Z" fill="#6F6F6F"/>
<path fill-rule="evenodd" clip-rule="evenodd" d="M10.0003 1.04199C9.39611 1.04199 8.84483 1.20792 8.24139 1.48958C7.65726 1.76223 6.98176 2.16462 6.13519 2.66893L4.92217 3.39152C3.98958 3.94705 3.24645 4.38972 2.68378 4.81303C2.10294 5.25001 1.66698 5.7 1.38289 6.29259C1.09865 6.88548 1.02161 7.50599 1.04632 8.23019C1.07024 8.93118 1.19287 9.78337 1.34663 10.8519L1.59026 12.5451C1.78808 13.92 1.94506 15.011 2.17959 15.8605C2.42135 16.7361 2.76437 17.4311 3.38337 17.9641C4.00186 18.4967 4.74186 18.7349 5.64728 18.8484C6.52661 18.9587 7.636 18.9587 9.03558 18.9587H10.9651C12.3646 18.9587 13.474 18.9587 14.3534 18.8484C15.2588 18.7349 15.9988 18.4967 16.6173 17.9641C17.2363 17.4311 17.5793 16.7361 17.8211 15.8605C18.0556 15.011 18.2126 13.92 18.4104 12.5451L18.654 10.8519C18.8078 9.78336 18.9304 8.93117 18.9543 8.23019C18.979 7.50599 18.902 6.88548 18.6178 6.29259C18.3337 5.7 17.8977 5.25001 17.3169 4.81303C16.7542 4.38972 16.0111 3.94705 15.0785 3.39152L13.8655 2.66893C13.0189 2.16462 12.3434 1.76223 11.7593 1.48958C11.1558 1.20792 10.6045 1.04199 10.0003 1.04199ZM6.74664 3.75967C7.6279 3.23471 8.24969 2.86517 8.77008 2.62227C9.27767 2.38535 9.64262 2.29199 10.0003 2.29199C10.358 2.29199 10.723 2.38535 11.2306 2.62227C11.751 2.86517 12.3728 3.23471 13.254 3.75967L14.408 4.44712C15.3783 5.0251 16.063 5.43394 16.5654 5.81191C17.0558 6.18084 17.3243 6.48611 17.4906 6.83297C17.6568 7.17953 17.7259 7.57813 17.7051 8.18757C17.6837 8.81244 17.5717 9.59725 17.4116 10.7095L17.1793 12.324C16.9739 13.7516 16.8271 14.7638 16.6161 15.5278C16.41 16.2744 16.1619 16.7067 15.8017 17.0169C15.4409 17.3275 14.9733 17.5109 14.1978 17.6081C13.4053 17.7075 12.3743 17.7087 10.9221 17.7087H9.0786C7.62636 17.7087 6.59537 17.7075 5.80282 17.6081C5.02737 17.5109 4.55973 17.3275 4.199 17.0169C3.83878 16.7067 3.59064 16.2744 3.38451 15.5278C3.17358 14.7638 3.02675 13.7516 2.82132 12.324L2.58902 10.7095C2.42897 9.59724 2.31691 8.81244 2.29559 8.18757C2.2748 7.57813 2.3439 7.17953 2.51005 6.83297C2.67633 6.48611 2.94489 6.18084 3.43527 5.81191C3.93767 5.43394 4.62235 5.0251 5.59261 4.44712L6.74664 3.75967Z" fill="#6F6F6F"/>
</svg>
