<svg width="32" height="32" viewBox="0 0 32 32" fill="none" xmlns="http://www.w3.org/2000/svg">
<g clip-path="url(#clip0_7160_5741)">
<path fill-rule="evenodd" clip-rule="evenodd" d="M16.0003 1.05371C16.7889 1.05371 17.4289 1.69371 17.4289 2.48228V4.48228C25.6118 5.216 32.0026 12.1989 32.0026 20.5417C32.0026 22.4754 30.4369 24.0914 28.4712 24.0914H3.52948C1.56376 24.0914 -0.00195312 22.4754 -0.00195312 20.5417C-0.00195312 12.1989 6.39119 5.216 14.5718 4.48228V2.48228C14.5718 1.69371 15.2118 1.05371 16.0003 1.05371ZM16.0003 7.27543C8.75462 7.27543 2.85519 13.2663 2.85519 20.5417C2.85519 20.9303 3.1729 21.2343 3.52948 21.2343H28.4712C28.6523 21.2313 28.8248 21.1568 28.9511 21.027C29.0774 20.8973 29.1473 20.7228 29.1455 20.5417C29.1455 13.2663 23.2438 7.27543 16.0003 7.27543ZM2.00033 26.5714C1.4699 26.5714 0.961192 26.7821 0.586119 27.1572C0.211046 27.5323 0.000332589 28.041 0.000332589 28.5714C0.000332589 29.1019 0.211046 29.6106 0.586119 29.9856C0.961192 30.3607 1.4699 30.5714 2.00033 30.5714H30.0003C30.5308 30.5714 31.0395 30.3607 31.4145 29.9856C31.7896 29.6106 32.0003 29.1019 32.0003 28.5714C32.0003 28.041 31.7896 27.5323 31.4145 27.1572C31.0395 26.7821 30.5308 26.5714 30.0003 26.5714H2.00033Z" fill="white"/>
</g>
<defs>
<clipPath id="clip0_7160_5741">
<rect width="32" height="32" fill="white"/>
</clipPath>
</defs>
</svg>
