<svg width="20" height="20" viewBox="0 0 20 20" fill="none" xmlns="http://www.w3.org/2000/svg">
<path fill-rule="evenodd" clip-rule="evenodd" d="M6.04437 3.54655C6.74535 2.06658 8.25252 1.04199 10.0003 1.04199C11.7481 1.04199 13.2553 2.06658 13.9563 3.54655C14.0262 3.54352 14.0964 3.54199 14.167 3.54199C16.8134 3.54199 18.9587 5.68729 18.9587 8.33366C18.9587 10.1508 17.9472 11.7305 16.4587 12.5427L16.4587 15.0437C16.4587 15.7924 16.4587 16.4167 16.3921 16.9124C16.3217 17.4356 16.167 17.9079 15.7874 18.2874C15.4079 18.667 14.9356 18.8217 14.4124 18.8921C13.9167 18.9587 13.2924 18.9587 12.5437 18.9587H7.457C6.70826 18.9587 6.08391 18.9587 5.58826 18.8921C5.0651 18.8217 4.59276 18.667 4.21321 18.2874C3.83365 17.9079 3.67892 17.4356 3.60859 16.9124C3.54195 16.4167 3.54197 15.7924 3.54199 15.0437L3.54199 12.5427C2.05342 11.7305 1.04199 10.1508 1.04199 8.33366C1.04199 5.68729 3.18729 3.54199 5.83366 3.54199C5.90423 3.54199 5.97448 3.54352 6.04437 3.54655ZM5.66918 4.79574C3.78953 4.88167 2.29199 6.43278 2.29199 8.33366C2.29199 9.785 3.16507 11.0338 4.41722 11.5809C4.64487 11.6804 4.79199 11.9052 4.79199 12.1536V14.3753H15.2087L15.2087 12.1536C15.2087 11.9052 15.3558 11.6804 15.5834 11.5809C16.8356 11.0338 17.7087 9.785 17.7087 8.33366C17.7087 6.43278 16.2111 4.88167 14.3315 4.79574C14.3604 4.99887 14.3753 5.20631 14.3753 5.41699V5.83366C14.3753 6.17884 14.0955 6.45866 13.7503 6.45866C13.4051 6.45866 13.1253 6.17884 13.1253 5.83366V5.41699C13.1253 5.06462 13.0672 4.72709 12.9606 4.41271C12.5421 3.17867 11.374 2.29199 10.0003 2.29199C8.62668 2.29199 7.4585 3.17867 7.04002 4.41271C6.93341 4.72709 6.87533 5.06461 6.87533 5.41699V5.83366C6.87533 6.17884 6.5955 6.45866 6.25033 6.45866C5.90515 6.45866 5.62533 6.17884 5.62533 5.83366V5.41699C5.62533 5.20631 5.64026 4.99887 5.66918 4.79574ZM15.2071 15.6253H4.7935C4.79703 16.0999 4.80873 16.4579 4.84744 16.7458C4.89914 17.1304 4.98849 17.295 5.09709 17.4036C5.20569 17.5122 5.37027 17.6015 5.75482 17.6532C6.15735 17.7073 6.69698 17.7087 7.50033 17.7087H12.5003C13.3037 17.7087 13.8433 17.7073 14.2458 17.6532C14.6304 17.6015 14.795 17.5122 14.9036 17.4036C15.0122 17.295 15.1015 17.1304 15.1532 16.7458C15.1919 16.4579 15.2036 16.0999 15.2071 15.6253Z" fill="#6F6F6F"/>
</svg>
