<svg width="32" height="32" viewBox="0 0 32 32" fill="none" xmlns="http://www.w3.org/2000/svg">
<path fill-rule="evenodd" clip-rule="evenodd" d="M20.165 6.51345C20.1821 6.52869 20.1993 6.54396 20.2165 6.55927L25.5683 11.3164C26.5669 12.204 27.3947 12.9398 27.9631 13.6077C28.5604 14.3097 28.9858 15.0655 28.9858 16.0008C28.9858 16.936 28.5604 17.6918 27.9631 18.3938C27.3947 19.0618 26.5669 19.7976 25.5683 20.6851L20.2165 25.4423C20.1993 25.4576 20.1821 25.4729 20.165 25.4881C19.7324 25.8727 19.3287 26.2317 18.9799 26.462C18.6374 26.6881 18.0146 27.0166 17.3169 26.7033C16.6192 26.39 16.451 25.7062 16.3924 25.3C16.3328 24.8863 16.3329 24.3461 16.333 23.7673C16.333 23.7443 16.333 23.7214 16.333 23.6983V21.6069C14.3977 21.7403 12.4365 22.2543 10.721 23.0902C8.70378 24.0731 7.09273 25.4669 6.21841 27.1323C6.00454 27.5396 5.54034 27.7485 5.09363 27.6384C4.64693 27.5282 4.33301 27.1275 4.33301 26.6674C4.33301 20.3728 6.17484 16.2742 8.80834 13.7544C11.1038 11.5581 13.9015 10.6569 16.333 10.4682V8.30323C16.333 8.28018 16.333 8.2572 16.333 8.23427C16.3329 7.65543 16.3328 7.1152 16.3924 6.70153C16.451 6.2953 16.6192 5.61157 17.3169 5.29826C18.0146 4.98495 18.6374 5.31343 18.9799 5.53957C19.3287 5.76985 19.7324 6.12882 20.165 6.51345ZM18.3371 7.57005C18.4879 7.69924 18.6679 7.85859 18.8878 8.05409L24.1842 12.762C25.2523 13.7114 25.973 14.3552 26.4399 14.9038C26.8883 15.4308 26.9858 15.7385 26.9858 16.0008C26.9858 16.263 26.8883 16.5708 26.4399 17.0977C25.973 17.6464 25.2523 18.2901 24.1842 19.2395L18.8878 23.9474C18.6679 24.1429 18.4879 24.3023 18.3371 24.4315C18.3335 24.233 18.333 23.9926 18.333 23.6983V20.5722C18.333 20.0199 17.8853 19.5722 17.333 19.5722C14.7829 19.5722 12.1329 20.1774 9.84498 21.2923C8.61988 21.8892 7.47941 22.6422 6.51158 23.5431C7.00326 19.4805 8.45623 16.8593 10.191 15.1995C12.3511 13.1327 15.0802 12.4293 17.333 12.4293C17.8853 12.4293 18.333 11.9816 18.333 11.4293V8.30323C18.333 8.00896 18.3335 7.76856 18.3371 7.57005Z" fill="white"/>
</svg>
