<svg width="18" height="18" viewBox="0 0 18 18" fill="none" xmlns="http://www.w3.org/2000/svg">
<g clip-path="url(#clip0_7335_33088)">
<path d="M13.1821 7.8601C13.381 7.62145 13.3488 7.26676 13.1101 7.06788C12.8714 6.869 12.5168 6.90124 12.3179 7.1399L10.9702 8.7571C10.6921 9.09081 10.5213 9.29363 10.3806 9.42067C10.3154 9.47958 10.2767 9.50307 10.2581 9.51204C10.2544 9.51387 10.2517 9.51497 10.25 9.51559C10.2483 9.51497 10.2456 9.51387 10.2419 9.51204C10.2233 9.50307 10.1846 9.47958 10.1194 9.42067C9.97866 9.29363 9.80789 9.09081 9.52979 8.7571L9.3105 8.49394C9.06415 8.19825 8.84206 7.9317 8.63462 7.74437C8.40891 7.54056 8.12462 7.35904 7.75 7.35904C7.37538 7.35904 7.09109 7.54056 6.86538 7.74437C6.65793 7.9317 6.43585 8.19826 6.1895 8.49394L4.81788 10.1399C4.619 10.3786 4.65124 10.7332 4.8899 10.9321C5.12855 11.131 5.48324 11.0988 5.68212 10.8601L7.02979 9.2429C7.30789 8.90919 7.47866 8.70637 7.61935 8.57933C7.6846 8.52042 7.7233 8.49693 7.74185 8.48796C7.74562 8.48613 7.7483 8.48503 7.75 8.48441C7.7517 8.48503 7.75438 8.48613 7.75815 8.48796C7.7767 8.49693 7.8154 8.52042 7.88065 8.57933C8.02134 8.70637 8.19211 8.90919 8.47021 9.2429L8.68951 9.50607C8.93585 9.80175 9.15794 10.0683 9.36538 10.2556C9.59109 10.4594 9.87538 10.641 10.25 10.641C10.6246 10.641 10.9089 10.4594 11.1346 10.2556C11.3421 10.0683 11.5641 9.80175 11.8105 9.50607L13.1821 7.8601Z" fill="white"/>
<path fill-rule="evenodd" clip-rule="evenodd" d="M8.95697 0.9375C7.22567 0.937491 5.86889 0.937483 4.81028 1.07981C3.72673 1.22549 2.87171 1.5295 2.2006 2.2006C1.5295 2.87171 1.22549 3.72673 1.07981 4.81028C0.937483 5.86889 0.937491 7.22567 0.9375 8.95697V9.04303C0.937491 10.7743 0.937483 12.1311 1.07981 13.1897C1.22549 14.2733 1.5295 15.1283 2.2006 15.7994C2.87171 16.4705 3.72673 16.7745 4.81028 16.9202C5.8689 17.0625 7.22567 17.0625 8.95697 17.0625H9.04303C10.7743 17.0625 12.1311 17.0625 13.1897 16.9202C14.2733 16.7745 15.1283 16.4705 15.7994 15.7994C16.4705 15.1283 16.7745 14.2733 16.9202 13.1897C17.0625 12.1311 17.0625 10.7743 17.0625 9.04303V8.95697C17.0625 7.22567 17.0625 5.8689 16.9202 4.81028C16.7745 3.72673 16.4705 2.87171 15.7994 2.2006C15.1283 1.5295 14.2733 1.22549 13.1897 1.07981C12.1311 0.937483 10.7743 0.937491 9.04303 0.9375H8.95697ZM2.9961 2.9961C3.42334 2.56886 4.00138 2.32369 4.96018 2.19478C5.93517 2.06369 7.21633 2.0625 9 2.0625C10.7837 2.0625 12.0648 2.06369 13.0398 2.19478C13.9986 2.32369 14.5767 2.56886 15.0039 2.9961C15.4311 3.42334 15.6763 4.00138 15.8052 4.96018C15.9363 5.93517 15.9375 7.21633 15.9375 9C15.9375 10.7837 15.9363 12.0648 15.8052 13.0398C15.6763 13.9986 15.4311 14.5767 15.0039 15.0039C14.5767 15.4311 13.9986 15.6763 13.0398 15.8052C12.0648 15.9363 10.7837 15.9375 9 15.9375C7.21633 15.9375 5.93517 15.9363 4.96018 15.8052C4.00138 15.6763 3.42334 15.4311 2.9961 15.0039C2.56886 14.5767 2.32369 13.9986 2.19478 13.0398C2.06369 12.0648 2.0625 10.7837 2.0625 9C2.0625 7.21633 2.06369 5.93517 2.19478 4.96018C2.32369 4.00138 2.56886 3.42334 2.9961 2.9961Z" fill="white"/>
</g>
<defs>
<clipPath id="clip0_7335_33088">
<rect width="18" height="18" fill="white"/>
</clipPath>
</defs>
</svg>
