<svg width="18" height="18" viewBox="0 0 18 18" fill="none" xmlns="http://www.w3.org/2000/svg">
<path fill-rule="evenodd" clip-rule="evenodd" d="M3.80901 3.80169C6.65551 0.959199 11.2827 0.989423 14.1466 3.85333C17.0118 6.71848 17.0408 11.3485 14.1946 14.1946C11.3484 17.0408 6.71845 17.0118 3.8533 14.1467C2.15542 12.4488 1.45428 10.1324 1.75535 7.93592C1.79754 7.62814 2.08125 7.41283 2.38903 7.45502C2.69681 7.4972 2.91212 7.78091 2.86993 8.08869C2.61495 9.94893 3.20837 11.9108 4.6488 13.3512C7.08216 15.7845 10.9998 15.7985 13.3991 13.3992C15.7985 10.9998 15.7845 7.08219 13.3512 4.64883C10.919 2.21671 7.00417 2.20154 4.60451 4.59718L5.16529 4.6C5.47594 4.60156 5.72651 4.85466 5.72495 5.16532C5.72339 5.47597 5.47029 5.72654 5.15963 5.72498L3.25047 5.71539C2.94202 5.71384 2.69235 5.46417 2.6908 5.15572L2.68121 3.24656C2.67965 2.9359 2.93022 2.6828 3.24088 2.68124C3.55153 2.67968 3.80463 2.93025 3.8062 3.2409L3.80901 3.80169ZM8.99991 5.43744C9.31057 5.43744 9.56241 5.68928 9.56241 5.99994V8.76694L11.2727 10.4772C11.4923 10.6969 11.4923 11.053 11.2727 11.2727C11.053 11.4924 10.6968 11.4924 10.4772 11.2727L8.43741 9.23293V5.99994C8.43741 5.68928 8.68925 5.43744 8.99991 5.43744Z" fill="white"/>
</svg>
