<svg width="14" height="14" viewBox="0 0 14 14" fill="none" xmlns="http://www.w3.org/2000/svg">
<path fill-rule="evenodd" clip-rule="evenodd" d="M7.25562 1.62107C7.171 1.59388 7.07847 1.60047 6.99987 1.63835C6.91382 1.67982 6.85694 1.75219 6.83651 1.83095L6.55902 2.90069C6.46197 3.2748 6.32068 3.63565 6.1387 3.97632C5.85617 4.50522 5.42869 4.91199 5.03211 5.25374L4.19284 5.97695C4.06277 6.08904 3.99432 6.25705 4.00914 6.42854L4.48291 11.9076C4.50684 12.1844 4.73809 12.3962 5.01454 12.3962H7.72623C9.55575 12.3962 11.0972 11.1232 11.3928 9.41366L11.8044 7.0338C11.861 6.70627 11.6092 6.40778 11.2786 6.40778H8.25632C7.68633 6.40778 7.25339 5.8964 7.34542 5.33474L7.73198 2.97542C7.78493 2.65224 7.7698 2.32154 7.68758 2.00457C7.64585 1.84371 7.51893 1.70565 7.34019 1.64823L7.25562 1.62107L7.38943 1.20453L7.25562 1.62107ZM6.62003 0.850093C6.90154 0.71444 7.2259 0.692476 7.52324 0.787997L7.60781 0.815163L7.474 1.2317L7.60781 0.815163C8.06106 0.960771 8.4147 1.32285 8.53455 1.78486C8.64737 2.21977 8.66811 2.67349 8.59546 3.11689L8.2089 5.47622C8.20396 5.50641 8.22722 5.53278 8.25632 5.53278H11.2786C12.1532 5.53278 12.8156 6.32162 12.6666 7.18291L12.255 9.56277C11.883 11.7143 9.95822 13.2712 7.72623 13.2712H5.01454C4.28324 13.2712 3.67414 12.7113 3.61116 11.983L3.1374 6.50391C3.09837 6.05258 3.27846 5.60984 3.62165 5.3141L4.46092 4.59089C4.84313 4.26153 5.16486 3.9423 5.36691 3.56405C5.51658 3.28386 5.63251 2.98762 5.71205 2.68099L5.98954 1.61124C6.0766 1.27565 6.30971 0.99963 6.62003 0.850093ZM1.73114 5.53318C1.96521 5.52308 2.16569 5.69917 2.18587 5.93259L2.75264 12.4872C2.78905 12.9083 2.4574 13.2712 2.03391 13.2712C1.63502 13.2712 1.3125 12.9476 1.3125 12.5494V5.97028C1.3125 5.73599 1.49707 5.54328 1.73114 5.53318Z" fill="#28806F"/>
</svg>
