<svg width="20" height="20" viewBox="0 0 20 20" fill="none" xmlns="http://www.w3.org/2000/svg">
<path d="M7.29216 10.8333C7.29216 10.4882 7.01233 10.2083 6.66716 10.2083C6.32198 10.2083 6.04216 10.4882 6.04216 10.8333V14.1667C6.04216 14.5118 6.32198 14.7917 6.66716 14.7917C7.01233 14.7917 7.29216 14.5118 7.29216 14.1667V10.8333Z" fill="#6F6F6F"/>
<path d="M13.3338 10.2083C13.679 10.2083 13.9588 10.4882 13.9588 10.8333V14.1667C13.9588 14.5118 13.679 14.7917 13.3338 14.7917C12.9886 14.7917 12.7088 14.5118 12.7088 14.1667V10.8333C12.7088 10.4882 12.9886 10.2083 13.3338 10.2083Z" fill="#6F6F6F"/>
<path d="M10.6255 10.8333C10.6255 10.4882 10.3457 10.2083 10.0005 10.2083C9.65531 10.2083 9.37549 10.4882 9.37549 10.8333V14.1667C9.37549 14.5118 9.65531 14.7917 10.0005 14.7917C10.3457 14.7917 10.6255 14.5118 10.6255 14.1667V10.8333Z" fill="#6F6F6F"/>
<path fill-rule="evenodd" clip-rule="evenodd" d="M14.3953 2.89415C13.999 2.73926 13.5551 2.71312 12.9855 2.70898C12.7515 2.21593 12.2492 1.875 11.6672 1.875H8.33382C7.75182 1.875 7.24945 2.21593 7.01552 2.70898C6.44591 2.71312 6.00195 2.73926 5.60566 2.89415C5.13217 3.07921 4.72033 3.39379 4.41723 3.80192C4.11146 4.21366 3.96792 4.7414 3.77035 5.46778L3.24713 7.38688C2.92421 7.55224 2.64164 7.77493 2.40592 8.07684C1.88759 8.7407 1.7958 9.5314 1.888 10.4384C1.97748 11.3185 2.25456 12.4268 2.60141 13.8141L2.62341 13.9021C2.84272 14.7794 3.02079 15.4917 3.23257 16.0476C3.45338 16.6272 3.73371 17.1023 4.1959 17.4631C4.65808 17.824 5.18694 17.9807 5.80279 18.0544C6.39347 18.125 7.12771 18.125 8.03202 18.125H11.9689C12.8732 18.125 13.6074 18.125 14.1981 18.0544C14.814 17.9807 15.3428 17.824 15.805 17.4631C16.2672 17.1023 16.5475 16.6272 16.7683 16.0476C16.9801 15.4917 17.1582 14.7794 17.3775 13.9021L17.3995 13.8141C17.7463 12.4268 18.0234 11.3185 18.1129 10.4384C18.2051 9.5314 18.1133 8.7407 17.595 8.07684C17.3593 7.77496 17.0767 7.55228 16.7539 7.38692L16.2306 5.46777C16.0331 4.7414 15.8895 4.21365 15.5837 3.80192C15.2807 3.39379 14.8688 3.07921 14.3953 2.89415ZM6.06069 4.05839C6.24385 3.9868 6.46517 3.96574 7.0167 3.96016C7.25112 4.45187 7.75279 4.79167 8.33382 4.79167H11.6672C12.2482 4.79167 12.7499 4.45187 12.9843 3.96016C13.5358 3.96574 13.7571 3.9868 13.9403 4.05839C14.1952 4.15803 14.417 4.32742 14.5802 4.54719C14.727 4.7448 14.8131 5.0209 15.0555 5.90995L15.3502 6.99058C14.4853 6.87497 13.3688 6.87498 11.9816 6.875H8.01929C6.63214 6.87498 5.51565 6.87497 4.65082 6.99057L4.94547 5.90995C5.18789 5.0209 5.274 4.7448 5.42076 4.54719C5.58397 4.32743 5.80573 4.15803 6.06069 4.05839ZM8.33382 3.125C8.21876 3.125 8.12549 3.21827 8.12549 3.33333C8.12549 3.44839 8.21876 3.54167 8.33382 3.54167H11.6672C11.7822 3.54167 11.8755 3.44839 11.8755 3.33333C11.8755 3.21827 11.7822 3.125 11.6672 3.125H8.33382ZM3.39117 8.8461C3.62354 8.54849 3.99102 8.34859 4.75032 8.23875C5.52585 8.12656 6.57738 8.125 8.071 8.125H11.9299C13.4235 8.125 14.475 8.12656 15.2506 8.23875C16.0099 8.34859 16.3774 8.54849 16.6097 8.8461C16.8421 9.14371 16.9469 9.5487 16.8693 10.312C16.7901 11.0916 16.5365 12.1121 16.1743 13.5611C15.9432 14.4853 15.7823 15.1247 15.6002 15.6026C15.4241 16.0648 15.2517 16.3093 15.0357 16.4779C14.8198 16.6465 14.5408 16.7545 14.0497 16.8132C13.5419 16.874 12.8826 16.875 11.9299 16.875H8.071C7.11834 16.875 6.45903 16.874 5.9512 16.8132C5.46007 16.7545 5.18113 16.6465 4.96516 16.4779C4.74919 16.3093 4.57677 16.0648 4.40067 15.6026C4.2186 15.1247 4.05768 14.4853 3.82663 13.5611C3.46437 12.1121 3.21085 11.0916 3.13159 10.312C3.054 9.5487 3.15881 9.14371 3.39117 8.8461Z" fill="#6F6F6F"/>
</svg>
