<svg width="18" height="18" viewBox="0 0 18 18" fill="none" xmlns="http://www.w3.org/2000/svg">
<path fill-rule="evenodd" clip-rule="evenodd" d="M8.95833 0C8.45439 0 7.99038 0.125239 7.48232 0.335351C6.99173 0.538236 6.42194 0.837257 5.71242 1.20961L3.98949 2.11376C3.11868 2.57073 2.4218 2.93643 1.88373 3.29576C1.32628 3.66803 0.896933 4.06001 0.584268 4.59098C0.272651 5.12018 0.132465 5.6932 0.0652403 6.3756C-1.21631e-05 7.03798 -6.71401e-06 7.85262 1.40047e-07 8.87714V9.03952C-6.71401e-06 10.064 -1.21631e-05 10.8787 0.0652403 11.5411C0.132465 12.2235 0.272651 12.7965 0.584268 13.3257C0.896933 13.8567 1.32628 14.2486 1.88373 14.6209C2.42177 14.9802 3.11861 15.3459 3.98935 15.8028L5.71238 16.707C6.4219 17.0794 6.99174 17.3784 7.48232 17.5813C7.99038 17.7914 8.45439 17.9167 8.95833 17.9167C9.46227 17.9167 9.92629 17.7914 10.4344 17.5813C10.9249 17.3784 11.4947 17.0794 12.2042 16.7071L13.9272 15.8029C14.798 15.3459 15.4949 14.9802 16.0329 14.6209C16.5904 14.2486 17.0197 13.8567 17.3324 13.3257C17.644 12.7965 17.7842 12.2235 17.8514 11.5411C17.9167 10.8787 17.9167 10.064 17.9167 9.03954V8.87712C17.9167 7.85262 17.9167 7.03798 17.8514 6.3756C17.7842 5.6932 17.644 5.12018 17.3324 4.59098C17.0197 4.06001 16.5904 3.66803 16.0329 3.29576C15.4949 2.93642 14.798 2.57072 13.9272 2.11375L12.2043 1.20962C11.4947 0.837263 10.9249 0.538239 10.4344 0.335352C9.92629 0.125239 9.46227 0 8.95833 0ZM6.26733 2.33006C7.00876 1.94098 7.52834 1.669 7.96002 1.49047C8.3802 1.3167 8.67538 1.25 8.95833 1.25C9.24129 1.25 9.53647 1.3167 9.95664 1.49047C10.3883 1.669 10.9079 1.94098 11.6493 2.33006L13.316 3.20469C14.2241 3.68123 14.8621 4.01694 15.3387 4.33527C15.5739 4.49232 15.7587 4.63815 15.9079 4.78478L8.95833 8.25956L2.00878 4.78478C2.15797 4.63815 2.34276 4.49232 2.57793 4.33527C3.05461 4.01694 3.69259 3.68123 4.60067 3.20469L6.26733 2.33006ZM1.4064 5.88114C1.36432 6.05937 1.3325 6.26177 1.30922 6.49815C1.2507 7.09216 1.25 7.84534 1.25 8.90959V9.00708C1.25 10.0713 1.2507 10.8245 1.30922 11.4185C1.36645 11.9995 1.47518 12.3752 1.66139 12.6914C1.84656 13.0059 2.11439 13.2718 2.57793 13.5814C3.05461 13.8997 3.69259 14.2354 4.60067 14.712L6.26733 15.5866C7.00876 15.9757 7.52834 16.2477 7.96002 16.4262C8.09633 16.4826 8.21948 16.5277 8.33333 16.5629V9.3446L1.4064 5.88114ZM9.58333 16.5629C9.69718 16.5277 9.82034 16.4826 9.95664 16.4262C10.3883 16.2477 10.9079 15.9757 11.6493 15.5866L13.316 14.712C14.2241 14.2354 14.8621 13.8997 15.3387 13.5814C15.8023 13.2718 16.0701 13.0059 16.2553 12.6914C16.4415 12.3752 16.5502 11.9995 16.6074 11.4185C16.666 10.8245 16.6667 10.0713 16.6667 9.00708V8.90959C16.6667 7.84534 16.666 7.09216 16.6074 6.49815C16.5842 6.26177 16.5524 6.05937 16.5103 5.88114L9.58333 9.3446V16.5629Z" fill="#6F6F6F"/>
</svg>
