<svg width="20" height="20" viewBox="0 0 20 20" fill="none" xmlns="http://www.w3.org/2000/svg">
<path fill-rule="evenodd" clip-rule="evenodd" d="M5.6458 4.37533H14.3535C15.0337 4.37532 15.5824 4.37531 16.0267 4.41176C16.4841 4.4493 16.8858 4.52859 17.2573 4.71878C17.8409 5.01761 18.3157 5.49243 18.6145 6.07603C18.8047 6.44745 18.884 6.84917 18.9215 7.30661C18.958 7.75087 18.958 8.29957 18.958 8.97987V9.0067C18.958 9.03054 18.958 9.05455 18.9581 9.07868C18.9589 9.36041 18.9598 9.66039 18.851 9.92858C18.7575 10.1589 18.6068 10.3614 18.4131 10.5171C18.3247 10.5881 18.2268 10.6444 18.1242 10.6914C18.1218 12.035 18.1046 13.3926 17.984 14.5557C17.9132 15.2384 17.8046 15.8793 17.6323 16.4258C17.4629 16.9634 17.2126 17.4724 16.8165 17.8245C16.1303 18.4344 15.2667 18.7034 14.1886 18.8322C13.1303 18.9587 11.7739 18.9587 10.0423 18.9587H9.95696C8.22535 18.9587 6.86896 18.9587 5.8107 18.8322C4.73259 18.7034 3.86895 18.4344 3.18275 17.8245C2.78663 17.4724 2.53639 16.9634 2.36691 16.4258C2.19464 15.8793 2.08603 15.2384 2.01525 14.5557C1.89469 13.3926 1.87749 12.035 1.87504 10.6914C1.77242 10.6444 1.67454 10.5881 1.58617 10.5171C1.39245 10.3614 1.24172 10.1589 1.14829 9.92858C1.03948 9.66039 1.04034 9.36041 1.04116 9.07868C1.04123 9.05454 1.0413 9.03054 1.0413 9.0067L1.0413 8.97983C1.04129 8.29956 1.04128 7.75087 1.07773 7.30661C1.11527 6.84917 1.19456 6.44745 1.38475 6.07603C1.68358 5.49243 2.1584 5.01761 2.742 4.71878C3.11342 4.52859 3.51514 4.4493 3.97258 4.41176C4.41684 4.37531 4.96553 4.37532 5.6458 4.37533ZM3.12637 11.0909C3.13204 12.2882 3.15614 13.4385 3.25859 14.4268C3.32511 15.0685 3.42244 15.6165 3.55908 16.05C3.69852 16.4923 3.86015 16.7542 4.01321 16.8902C4.42536 17.2566 4.99477 17.4758 5.95903 17.591C6.93444 17.7076 8.21611 17.7087 9.99963 17.7087C11.7831 17.7087 13.0648 17.7076 14.0402 17.591C15.0045 17.4758 15.5739 17.2566 15.9861 16.8902C16.1391 16.7542 16.3007 16.4923 16.4402 16.05C16.5768 15.6165 16.6741 15.0685 16.7407 14.4268C16.8431 13.4385 16.8672 12.2882 16.8729 11.0909L12.708 12.3403V12.6349C12.708 13.0608 12.4486 13.4439 12.0532 13.6021L11.4697 13.8354C10.526 14.2129 9.47325 14.2129 8.52954 13.8354L7.9461 13.6021C7.55062 13.4439 7.2913 13.0608 7.2913 12.6349V12.3403L3.12637 11.0909ZM7.2913 11.0353L2.79761 9.6872C2.61809 9.63335 2.51435 9.60185 2.43829 9.57305C2.39167 9.55539 2.37311 9.54502 2.36828 9.54201C2.3413 9.5201 2.32023 9.49178 2.307 9.45964C2.3055 9.45415 2.3009 9.43339 2.29739 9.38367C2.29166 9.30254 2.2913 9.19412 2.2913 9.0067C2.2913 8.29327 2.29179 7.79595 2.32355 7.40882C2.35471 7.02904 2.41279 6.81092 2.49737 6.64575C2.67667 6.29559 2.96156 6.0107 3.31172 5.8314C3.47689 5.74682 3.69501 5.68874 4.07479 5.65758C4.46192 5.62582 4.95924 5.62533 5.67267 5.62533H14.3266C15.04 5.62533 15.5373 5.62582 15.9245 5.65758C16.3043 5.68874 16.5224 5.74682 16.6875 5.8314C17.0377 6.0107 17.3226 6.29559 17.5019 6.64575C17.5865 6.81092 17.6446 7.02904 17.6757 7.40882C17.7075 7.79595 17.708 8.29327 17.708 9.0067C17.708 9.19412 17.7076 9.30254 17.7019 9.38367C17.6984 9.43338 17.6938 9.45414 17.6923 9.45964C17.679 9.49178 17.658 9.5201 17.631 9.54201C17.6262 9.54502 17.6076 9.55539 17.561 9.57305C17.4849 9.60185 17.3812 9.63335 17.2017 9.6872L12.708 11.0353V10.8337C12.708 10.2584 12.2416 9.79199 11.6663 9.79199H8.33296C7.75767 9.79199 7.2913 10.2584 7.2913 10.8337V11.0353ZM17.6323 9.54109L17.631 9.54201L17.6323 9.54109ZM17.6918 9.46121L17.6923 9.45964L17.6918 9.46121ZM2.30749 9.46121L2.307 9.45964L2.30749 9.46121ZM2.36692 9.54109L2.36828 9.54201L2.36692 9.54109ZM8.5413 11.042V12.4938L8.99378 12.6748C9.63948 12.9331 10.3598 12.9331 11.0055 12.6748L11.458 12.4938V11.042H8.5413Z" fill="#6F6F6F"/>
<path fill-rule="evenodd" clip-rule="evenodd" d="M9.99979 2.29199C9.18438 2.29199 8.48902 2.81285 8.23132 3.54194C8.11629 3.86739 7.75921 4.03796 7.43377 3.92293C7.10832 3.8079 6.93774 3.45083 7.05277 3.12538C7.48147 1.91248 8.63817 1.04199 9.99979 1.04199C11.3614 1.04199 12.5181 1.91248 12.9468 3.12538C13.0618 3.45083 12.8913 3.8079 12.5658 3.92293C12.2404 4.03796 11.8833 3.86739 11.7683 3.54194C11.5106 2.81285 10.8152 2.29199 9.99979 2.29199Z" fill="#6F6F6F"/>
</svg>
