<svg width="11" height="11" viewBox="0 0 11 11" fill="none" xmlns="http://www.w3.org/2000/svg">
<path d="M4.5 6H0.750003C0.537503 6 0.359503 5.928 0.216003 5.784C0.0725027 5.64 0.000502586 5.462 2.5862e-06 5.25C-0.000497414 5.038 0.0715027 4.86 0.216003 4.716C0.360503 4.572 0.538503 4.5 0.750003 4.5H4.5V0.750003C4.5 0.537503 4.572 0.359503 4.716 0.216003C4.86 0.0725027 5.038 0.000502586 5.25 2.5862e-06C5.462 -0.000497414 5.64025 0.0715027 5.78475 0.216003C5.92925 0.360503 6.001 0.538503 6 0.750003V4.5H9.75C9.9625 4.5 10.1408 4.572 10.2848 4.716C10.4288 4.86 10.5005 5.038 10.5 5.25C10.4995 5.462 10.4275 5.64025 10.284 5.78475C10.1405 5.92925 9.9625 6.001 9.75 6H6V9.75C6 9.9625 5.928 10.1408 5.784 10.2848C5.64 10.4288 5.462 10.5005 5.25 10.5C5.038 10.4995 4.86 10.4275 4.716 10.284C4.572 10.1405 4.5 9.9625 4.5 9.75V6Z" fill="white"/>
</svg>
