<svg width="15" height="17" viewBox="0 0 15 17" fill="none" xmlns="http://www.w3.org/2000/svg">
<path fill-rule="evenodd" clip-rule="evenodd" d="M3.63659 3.04461e-05C3.67263 4.62264e-05 3.7092 6.22303e-05 3.74631 6.22303e-05H10.8788C10.9159 6.22303e-05 10.9525 4.62264e-05 10.9885 3.04461e-05C11.7511 -0.000303489 12.2759 -0.000533313 12.7179 0.153259C13.5526 0.443707 14.2007 1.11545 14.4785 1.96169L13.9441 2.13716L14.4785 1.96169C14.6256 2.40953 14.6254 2.94191 14.6251 3.73241C14.6251 3.76779 14.625 3.80368 14.625 3.84011V14.3432C14.625 15.4421 13.3298 16.0964 12.4767 15.3157C12.4171 15.2612 12.333 15.2612 12.2734 15.3157L11.911 15.6473C11.2149 16.2843 10.1602 16.2843 9.46407 15.6473C9.19783 15.4037 8.80228 15.4037 8.53604 15.6473C7.8399 16.2843 6.78521 16.2843 6.08907 15.6473C5.82283 15.4037 5.42728 15.4037 5.16104 15.6473C4.4649 16.2843 3.41021 16.2843 2.71407 15.6473L2.35174 15.3157C2.29214 15.2612 2.20797 15.2612 2.14836 15.3157C1.29529 16.0964 5.05563e-05 15.4421 5.05563e-05 14.3432V3.84011C5.05563e-05 3.80368 3.75476e-05 3.76779 2.47177e-05 3.73241C-0.000261563 2.94191 -0.000454366 2.40953 0.146585 1.96169C0.424431 1.11545 1.07251 0.443707 1.90724 0.153259C2.34923 -0.000533313 2.87403 -0.000303534 3.63659 3.04461e-05ZM3.74631 1.12506C2.8305 1.12506 2.51505 1.13293 2.27695 1.21578C1.78242 1.38785 1.38689 1.79046 1.21545 2.31263C1.13214 2.56637 1.12505 2.90097 1.12505 3.84011V14.3432C1.12505 14.4325 1.16999 14.4871 1.22638 14.5132C1.25575 14.5267 1.28448 14.5302 1.30842 14.527C1.32952 14.5242 1.35683 14.5151 1.38889 14.4858C1.8784 14.0379 2.62171 14.0379 3.11121 14.4858L3.47354 14.8173C3.73978 15.061 4.13533 15.061 4.40156 14.8173C5.0977 14.1803 6.1524 14.1803 6.84854 14.8173C7.11478 15.061 7.51033 15.061 7.77657 14.8173C8.47271 14.1803 9.5274 14.1803 10.2235 14.8173C10.4898 15.061 10.8853 15.061 11.1516 14.8173L11.5139 14.4858C12.0034 14.0379 12.7467 14.0379 13.2362 14.4858C13.2683 14.5151 13.2956 14.5242 13.3167 14.527C13.3406 14.5302 13.3694 14.5267 13.3987 14.5132C13.4551 14.4871 13.5 14.4325 13.5 14.3432V3.84011C13.5 2.90097 13.493 2.56637 13.4097 2.31263C13.2382 1.79046 12.8427 1.38785 12.3482 1.21578C12.1101 1.13293 11.7946 1.12506 10.8788 1.12506H3.74631ZM9.56218 4.64297C9.79392 4.84988 9.81404 5.20546 9.60714 5.4372L6.92857 8.4372C6.82185 8.55672 6.66922 8.62506 6.50898 8.62506C6.34874 8.62506 6.19611 8.55672 6.08939 8.4372L5.01796 7.2372C4.81106 7.00546 4.83118 6.64988 5.06292 6.44297C5.29465 6.23607 5.65024 6.2562 5.85714 6.48793L6.50898 7.21799L8.76796 4.68793C8.97486 4.4562 9.33045 4.43607 9.56218 4.64297ZM3.37505 10.6876C3.37505 10.3769 3.62689 10.1251 3.93755 10.1251H10.6876C10.9982 10.1251 11.2501 10.3769 11.2501 10.6876C11.2501 10.9982 10.9982 11.2501 10.6876 11.2501H3.93755C3.62689 11.2501 3.37505 10.9982 3.37505 10.6876Z" fill="white"/>
</svg>
