<svg width="18" height="18" viewBox="0 0 18 18" fill="none" xmlns="http://www.w3.org/2000/svg">
<path d="M9.05917 1.6875C5.46405 1.6875 2.50858 4.43475 2.22041 7.9375H1.50002C1.2721 7.9375 1.06672 8.07503 0.979913 8.28576C0.893108 8.4965 0.942045 8.73878 1.10383 8.89931L2.36369 10.1493C2.583 10.3669 2.93675 10.3669 3.15606 10.1493L4.41592 8.89931C4.57771 8.73878 4.62664 8.4965 4.53984 8.28576C4.45303 8.07503 4.24765 7.9375 4.01973 7.9375H3.3501C3.63489 5.06375 6.07859 2.8125 9.05917 2.8125C11.1363 2.8125 12.9545 3.90634 13.9617 5.54459C14.1244 5.80924 14.4708 5.89189 14.7355 5.72919C15.0001 5.56649 15.0828 5.22006 14.9201 4.95541C13.7153 2.99571 11.5405 1.6875 9.05917 1.6875Z" fill="#6F6F6F"/>
<path d="M15.6309 7.84994C15.4117 7.63335 15.0591 7.63335 14.84 7.84994L13.5753 9.09994C13.4131 9.26029 13.3638 9.50274 13.4505 9.71374C13.5371 9.92474 13.7427 10.0625 13.9708 10.0625H14.6451C14.3592 12.9346 11.9069 15.1875 8.91207 15.1875C6.82519 15.1875 4.9994 14.0927 3.98847 12.4546C3.82532 12.1902 3.47874 12.1082 3.21437 12.2713C2.95 12.4345 2.86795 12.781 3.0311 13.0454C4.24055 15.0052 6.42304 16.3125 8.91207 16.3125C12.518 16.3125 15.4856 13.5669 15.7748 10.0625H16.5001C16.7282 10.0625 16.9337 9.92474 17.0204 9.71374C17.1071 9.50274 17.0578 9.26029 16.8955 9.09994L15.6309 7.84994Z" fill="#6F6F6F"/>
</svg>
