<svg width="20" height="20" viewBox="0 0 20 20" fill="none" xmlns="http://www.w3.org/2000/svg">
<path fill-rule="evenodd" clip-rule="evenodd" d="M5.91565 1.04203C5.9557 1.04204 5.99633 1.04206 6.03757 1.04206H13.9625C14.0038 1.04206 14.0444 1.04204 14.0845 1.04203C14.9318 1.04165 15.5149 1.0414 16.006 1.21228C16.9334 1.535 17.6535 2.28138 17.9622 3.22165L17.3684 3.41661L17.9622 3.22165C18.1256 3.71925 18.1254 4.31078 18.1251 5.18911C18.1251 5.22842 18.1251 5.2683 18.1251 5.30878V16.9789C18.1251 18.1999 16.6859 18.9268 15.738 18.0595C15.6718 17.9989 15.5783 17.9989 15.5121 18.0595L15.1095 18.4279C14.336 19.1357 13.1641 19.1357 12.3906 18.4279C12.0948 18.1572 11.6553 18.1572 11.3595 18.4279C10.586 19.1357 9.41412 19.1357 8.64063 18.4279C8.34481 18.1572 7.90531 18.1572 7.60948 18.4279C6.836 19.1357 5.66412 19.1357 4.89063 18.4279L4.48805 18.0595C4.42182 17.9989 4.32829 17.9989 4.26206 18.0595C3.31421 18.9268 1.87506 18.1999 1.87506 16.9789V5.30878C1.87506 5.26831 1.87504 5.22843 1.87503 5.18912C1.87471 4.31078 1.8745 3.71925 2.03787 3.22165C2.34659 2.28138 3.06668 1.535 3.99415 1.21228C4.48525 1.0414 5.06836 1.04165 5.91565 1.04203ZM6.03757 2.29206C5.02 2.29206 4.6695 2.3008 4.40494 2.39285C3.85546 2.58405 3.41599 3.03139 3.2255 3.61158C3.13293 3.89352 3.12506 4.2653 3.12506 5.30878V16.9789C3.12506 17.0781 3.17499 17.1388 3.23764 17.1677C3.27028 17.1828 3.3022 17.1867 3.3288 17.1832C3.35225 17.18 3.38259 17.1699 3.41821 17.1373C3.96211 16.6396 4.78801 16.6396 5.3319 17.1373L5.73448 17.5057C6.03031 17.7764 6.46981 17.7764 6.76563 17.5057C7.53912 16.7979 8.711 16.7979 9.48448 17.5057C9.78031 17.7764 10.2198 17.7764 10.5156 17.5057C11.2891 16.7979 12.461 16.7979 13.2345 17.5057C13.5303 17.7764 13.9698 17.7764 14.2656 17.5057L14.6682 17.1373C15.2121 16.6396 16.038 16.6396 16.5819 17.1373C16.6175 17.1699 16.6479 17.18 16.6713 17.1832C16.6979 17.1867 16.7298 17.1828 16.7625 17.1677C16.8251 17.1388 16.8751 17.0781 16.8751 16.9789V5.30878C16.8751 4.2653 16.8672 3.89352 16.7746 3.61158C16.5841 3.03139 16.1447 2.58405 15.5952 2.39285C15.3306 2.3008 14.9801 2.29206 13.9625 2.29206H6.03757ZM12.4996 6.20085C12.7571 6.43074 12.7795 6.82584 12.5496 7.08332L9.57341 10.4167C9.45483 10.5495 9.28524 10.6254 9.1072 10.6254C8.92916 10.6254 8.75957 10.5495 8.64099 10.4167L7.45051 9.08332C7.22062 8.82584 7.24298 8.43074 7.50046 8.20085C7.75794 7.97096 8.15304 7.99332 8.38293 8.2508L9.1072 9.06198L11.6172 6.2508C11.8471 5.99332 12.2422 5.97096 12.4996 6.20085ZM5.62506 12.9171C5.62506 12.5719 5.90488 12.2921 6.25006 12.2921H13.7501C14.0952 12.2921 14.3751 12.5719 14.3751 12.9171C14.3751 13.2622 14.0952 13.5421 13.7501 13.5421H6.25006C5.90488 13.5421 5.62506 13.2622 5.62506 12.9171Z" fill="#6F6F6F"/>
</svg>
