<svg width="20" height="20" viewBox="0 0 20 20" fill="none" xmlns="http://www.w3.org/2000/svg">
<path fill-rule="evenodd" clip-rule="evenodd" d="M9.55808 1.22603C9.80216 0.981949 10.1979 0.981949 10.442 1.22603L12.942 3.72603C13.186 3.97011 13.186 4.36583 12.942 4.60991C12.6979 4.85399 12.3022 4.85399 12.0581 4.60991L10.625 3.17685V8.33464C10.625 8.67981 10.3452 8.95964 10 8.95964C9.65484 8.95964 9.37502 8.67981 9.37502 8.33464V3.17685L7.94196 4.60991C7.69788 4.85399 7.30216 4.85399 7.05808 4.60991C6.814 4.36583 6.814 3.9701 7.05808 3.72603L9.55808 1.22603ZM13.5447 1.71251C13.5785 1.36899 13.8843 1.1179 14.2279 1.15169C15.6369 1.29029 16.7231 1.61457 17.5549 2.44642C18.3006 3.19209 18.6384 4.14211 18.8002 5.34606C18.9584 6.5223 18.9584 8.02983 18.9584 9.95349V10.0491C18.9584 10.3111 18.9584 10.5654 18.958 10.8122C18.9582 10.8196 18.9584 10.8271 18.9584 10.8346C18.9584 10.8429 18.9582 10.8511 18.9579 10.8593C18.955 12.4026 18.9355 13.6507 18.8002 14.6565C18.6384 15.8605 18.3006 16.8105 17.5549 17.5562C16.8092 18.3019 15.8592 18.6396 14.6553 18.8015C13.479 18.9597 11.9715 18.9596 10.0478 18.9596H9.95221C8.02855 18.9596 6.52102 18.9597 5.34478 18.8015C4.14083 18.6396 3.19081 18.3019 2.44513 17.5562C1.69946 16.8105 1.36168 15.8605 1.19981 14.6565C1.06458 13.6507 1.04499 12.4026 1.04216 10.8593C1.04185 10.8511 1.04169 10.8429 1.04169 10.8346C1.04169 10.8271 1.04182 10.8196 1.04208 10.8122C1.04168 10.5654 1.04169 10.3111 1.04169 10.0491V9.95349C1.04168 8.02983 1.04167 6.5223 1.19981 5.34606C1.36168 4.14211 1.69946 3.19209 2.44513 2.44642C3.27697 1.61457 4.3631 1.29029 5.77217 1.15169C6.11569 1.1179 6.42156 1.36899 6.45535 1.71251C6.48914 2.05603 6.23806 2.3619 5.89454 2.39569C4.59504 2.52351 3.85797 2.80134 3.32902 3.3303C2.8543 3.80501 2.58189 4.44728 2.43866 5.51262C2.29301 6.59593 2.29169 8.01945 2.29169 10.0013C2.29169 10.0714 2.29169 10.1409 2.2917 10.2096H4.30024C4.33799 10.2096 4.37528 10.2096 4.41214 10.2096C5.05589 10.2089 5.56574 10.2083 6.02438 10.4193C6.48303 10.6302 6.81443 11.0177 7.23286 11.5069C7.25682 11.5349 7.28106 11.5633 7.30563 11.5919L7.81015 12.1805C8.33827 12.7967 8.48651 12.9491 8.66464 13.031C8.84278 13.1129 9.05496 13.1263 9.86647 13.1263H10.1336C10.9451 13.1263 11.1573 13.1129 11.3354 13.031C11.5135 12.9491 11.6618 12.7967 12.1899 12.1805L12.6944 11.5919C12.719 11.5633 12.7432 11.5349 12.7672 11.5069C13.1856 11.0177 13.517 10.6302 13.9757 10.4193C14.4343 10.2083 14.9441 10.2089 15.5879 10.2096C15.6248 10.2096 15.6621 10.2096 15.6998 10.2096H17.7083C17.7084 10.1409 17.7084 10.0714 17.7084 10.0013C17.7084 8.01945 17.707 6.59593 17.5614 5.51262C17.4181 4.44728 17.1457 3.80501 16.671 3.3303C16.1421 2.80134 15.405 2.52351 14.1055 2.39569C13.762 2.3619 13.5109 2.05603 13.5447 1.71251ZM17.7054 11.4596H15.6998C14.8883 11.4596 14.6761 11.473 14.498 11.5549C14.3198 11.6369 14.1716 11.7893 13.6435 12.4054L13.139 12.994C13.1144 13.0227 13.0902 13.051 13.0662 13.079C12.6478 13.5682 12.3164 13.9557 11.8577 14.1666C11.3991 14.3776 10.8892 14.3771 10.2455 14.3764C10.2086 14.3763 10.1713 14.3763 10.1336 14.3763H9.86647C9.82872 14.3763 9.79143 14.3763 9.75457 14.3764C9.11081 14.3771 8.60097 14.3776 8.14232 14.1666C7.68368 13.9557 7.35228 13.5682 6.93384 13.079C6.90989 13.051 6.88565 13.0227 6.86108 12.994L6.35656 12.4054C5.82844 11.7893 5.6802 11.6369 5.50206 11.5549C5.32393 11.473 5.11174 11.4596 4.30024 11.4596H2.2946C2.30247 12.7118 2.33151 13.693 2.43866 14.49C2.58189 15.5553 2.8543 16.1976 3.32902 16.6723C3.80373 17.147 4.446 17.4194 5.51133 17.5627C6.59465 17.7083 8.01817 17.7096 10 17.7096C11.9819 17.7096 13.4054 17.7083 14.4887 17.5627C15.554 17.4194 16.1963 17.147 16.671 16.6723C17.1457 16.1976 17.4181 15.5553 17.5614 14.49C17.6685 13.693 17.6976 12.7118 17.7054 11.4596Z" fill="black"/>
</svg>
