<svg width="17" height="18" viewBox="0 0 17 18" fill="none" xmlns="http://www.w3.org/2000/svg">
<path d="M10.6132 8.125C11.0734 8.125 11.4465 7.7519 11.4465 7.29167C11.4465 6.83143 11.0734 6.45833 10.6132 6.45833C10.153 6.45833 9.77987 6.83143 9.77987 7.29167C9.77987 7.7519 10.153 8.125 10.6132 8.125Z" fill="#2D71F7"/>
<path d="M6.44653 7.29167C6.44653 7.7519 6.07344 8.125 5.6132 8.125C5.15296 8.125 4.77987 7.7519 4.77987 7.29167C4.77987 6.83143 5.15296 6.45833 5.6132 6.45833C6.07344 6.45833 6.44653 6.83143 6.44653 7.29167Z" fill="#2D71F7"/>
<path fill-rule="evenodd" clip-rule="evenodd" d="M4.9882 3.35473V3.125C4.9882 1.39911 6.38731 0 8.1132 0C9.83909 0 11.2382 1.39911 11.2382 3.125V3.35472C11.7869 3.37171 12.2755 3.40217 12.709 3.45682C13.71 3.58301 14.5203 3.8485 15.1463 4.45983C15.3551 4.6638 15.5408 4.89025 15.6998 5.13504C16.1765 5.86872 16.2779 6.71535 16.2054 7.7217C16.1343 8.7066 15.887 9.94314 15.5732 11.5123L15.5572 11.592C15.3394 12.6811 15.1661 13.5478 14.9516 14.2297C14.7307 14.932 14.4486 15.4998 13.9766 15.9597C13.8143 16.1179 13.6387 16.2619 13.4518 16.39C12.9082 16.7626 12.2961 16.9279 11.5641 17.0068C10.8535 17.0834 9.96957 17.0833 8.8589 17.0833H7.3676C6.25694 17.0833 5.37305 17.0834 4.6624 17.0068C3.93044 16.9279 3.31832 16.7626 2.77474 16.39C2.58778 16.2619 2.41218 16.1179 2.24986 15.9597C1.77792 15.4998 1.49582 14.932 1.27491 14.2297C1.06043 13.5478 0.887089 12.6811 0.669277 11.592L0.653382 11.5125C0.339514 9.94325 0.092184 8.70664 0.021148 7.7217C-0.0514328 6.71535 0.0499927 5.86872 0.526691 5.13504C0.685741 4.89025 0.871383 4.6638 1.08023 4.45983C1.70618 3.8485 2.51647 3.58301 3.51752 3.45682C3.95099 3.40218 4.43955 3.37171 4.9882 3.35473ZM6.2382 3.125C6.2382 2.08947 7.07767 1.25 8.1132 1.25C9.14873 1.25 9.9882 2.08947 9.9882 3.125V3.33516C9.63469 3.33333 9.26151 3.33333 8.86779 3.33333H7.35872C6.96496 3.33333 6.59174 3.33333 6.2382 3.33517V3.125ZM1.95361 5.3541C2.29898 5.01679 2.79359 4.80797 3.67385 4.697C4.56627 4.58451 5.74845 4.58333 7.40369 4.58333H8.82281C10.4781 4.58333 11.6602 4.58451 12.5527 4.697C13.4329 4.80797 13.9275 5.01679 14.2729 5.3541C14.4158 5.49365 14.5428 5.64859 14.6516 5.81608C14.9147 6.22089 15.0224 6.74685 14.9586 7.63178C14.8939 8.52893 14.6632 9.68839 14.3386 11.3115C14.1121 12.444 13.9511 13.2445 13.7592 13.8546C13.5714 14.4516 13.3718 14.8037 13.1042 15.0646C12.9931 15.1728 12.873 15.2713 12.7451 15.359C12.4368 15.5702 12.0524 15.6969 11.4302 15.764C10.7943 15.8325 9.97771 15.8333 8.82281 15.8333H7.40369C6.2488 15.8333 5.43224 15.8325 4.79635 15.764C4.17409 15.6969 3.78967 15.5702 3.48143 15.359C3.35351 15.2713 3.23336 15.1728 3.1223 15.0646C2.85469 14.8037 2.6551 14.4516 2.4673 13.8546C2.27539 13.2445 2.11442 12.444 1.88793 11.3115C1.56331 9.68839 1.33261 8.52893 1.26791 7.63178C1.20409 6.74685 1.31185 6.22089 1.57487 5.81608C1.6837 5.64859 1.81071 5.49365 1.95361 5.3541Z" fill="#2D71F7"/>
</svg>
