<svg width="18" height="18" viewBox="0 0 18 18" fill="none" xmlns="http://www.w3.org/2000/svg">
<path fill-rule="evenodd" clip-rule="evenodd" d="M7.89784 1.10225C8.11751 1.32192 8.11751 1.67808 7.89784 1.89775C7.70329 2.09229 7.70329 2.40771 7.89784 2.60225C8.53172 3.23614 8.53172 4.26386 7.89784 4.89775C7.67817 5.11742 7.32201 5.11742 7.10234 4.89775C6.88267 4.67808 6.88267 4.32192 7.10234 4.10225C7.29689 3.90771 7.29689 3.59229 7.10234 3.39775C6.46846 2.76386 6.46846 1.73614 7.10234 1.10225C7.32201 0.882583 7.67817 0.882583 7.89784 1.10225ZM4.52272 2.22725C4.74239 2.44692 4.74239 2.80308 4.52272 3.02275L4.43564 3.10984C4.2532 3.29227 4.23267 3.5811 4.38748 3.7875C4.87819 4.44179 4.81313 5.35734 4.23481 5.93566L4.14772 6.02275C3.92805 6.24242 3.5719 6.24242 3.35223 6.02275C3.13256 5.80308 3.13256 5.44692 3.35223 5.22725L3.43932 5.14016C3.62175 4.95773 3.64228 4.6689 3.48748 4.4625C2.99676 3.80821 3.06183 2.89266 3.64014 2.31434L3.72723 2.22725C3.9469 2.00758 4.30305 2.00758 4.52272 2.22725ZM11.6477 2.22725C11.8674 2.44692 11.8674 2.80308 11.6477 3.02275L11.5606 3.10984C11.3782 3.29227 11.3577 3.5811 11.5125 3.7875C12.0032 4.44179 11.9381 5.35734 11.3598 5.93566L11.2727 6.02275C11.0531 6.24242 10.6969 6.24242 10.4772 6.02275C10.2576 5.80308 10.2576 5.44692 10.4772 5.22725L10.5643 5.14016C10.7468 4.95773 10.7673 4.6689 10.6125 4.4625C10.1218 3.80821 10.1868 2.89266 10.7651 2.31434L10.8522 2.22725C11.0719 2.00758 11.4281 2.00758 11.6477 2.22725ZM3.48553 6.93748C3.50247 6.93749 3.51965 6.9375 3.53709 6.9375H11.4629C11.4803 6.9375 11.4975 6.93749 11.5144 6.93748C11.7864 6.93736 11.9951 6.93727 12.1755 6.96935C12.6717 7.05758 13.1018 7.31954 13.4054 7.6875H14.25C15.8033 7.6875 17.0625 8.9467 17.0625 10.5C17.0625 12.0533 15.8033 13.3125 14.25 13.3125H13.2358C12.9072 14.1599 12.3365 14.9023 11.5826 15.4398C10.7865 16.0074 9.833 16.3125 8.85518 16.3125H6.14477C5.16695 16.3125 4.2135 16.0074 3.41732 15.4398C2.33672 14.6693 1.63235 13.4778 1.47828 12.1597L1.17777 9.58864C1.17575 9.57132 1.17375 9.55426 1.17177 9.53744C1.14008 9.26729 1.11576 9.06005 1.12667 8.87714C1.18348 7.92517 1.88553 7.13628 2.82447 6.96935C3.00488 6.93727 3.21353 6.93736 3.48553 6.93748ZM12.3512 12.3533C12.25 12.455 12.1875 12.5952 12.1875 12.75C12.1875 12.7913 12.1919 12.8316 12.2004 12.8704C11.9528 13.5296 11.5134 14.1075 10.9295 14.5237C10.324 14.9555 9.59886 15.1875 8.85518 15.1875H6.14477C5.40109 15.1875 4.67594 14.9555 4.07041 14.5237C3.24856 13.9378 2.71285 13.0316 2.59568 12.0291L2.29517 9.45804C2.2548 9.11266 2.24551 9.01401 2.24968 8.94416C2.2755 8.51144 2.59461 8.15286 3.0214 8.07698C3.0903 8.06473 3.18936 8.0625 3.53709 8.0625H11.4629C11.8106 8.0625 11.9097 8.06473 11.9785 8.07698C12.4053 8.15286 12.7245 8.51144 12.7503 8.94416C12.7544 9.01401 12.7452 9.11266 12.7048 9.45804L12.4043 12.0291C12.3915 12.1384 12.3737 12.2466 12.3512 12.3533ZM13.5183 12.1875H14.25C15.182 12.1875 15.9375 11.432 15.9375 10.5C15.9375 9.56802 15.182 8.8125 14.25 8.8125H13.8684C13.8704 8.83396 13.872 8.85551 13.8733 8.87714C13.8842 9.06005 13.8599 9.26729 13.8282 9.53743C13.8262 9.55426 13.8242 9.57132 13.8222 9.58864L13.5217 12.1597C13.5206 12.169 13.5195 12.1782 13.5183 12.1875Z" fill="white"/>
</svg>
