<svg width="22" height="20" viewBox="0 0 22 20" fill="none" xmlns="http://www.w3.org/2000/svg">
<path fill-rule="evenodd" clip-rule="evenodd" d="M8.69358 3.07211e-07C6.85583 -1.50709e-05 5.40019 -2.72393e-05 4.26098 0.153136C3.08856 0.310764 2.13961 0.642881 1.39124 1.39124C0.642881 2.13961 0.310764 3.08856 0.153136 4.26098C-2.73585e-05 5.40019 -1.51287e-05 6.85582 3.08995e-07 8.69357V10.8064C-1.51287e-05 12.6442 -2.73436e-05 14.0998 0.153136 15.239C0.310764 16.4114 0.642881 17.3604 1.39124 18.1088C2.13961 18.8571 3.08856 19.1892 4.26098 19.3469C5.40018 19.5 6.8558 19.5 8.69354 19.5H12.8064C13.1206 19.5 13.4238 19.5 13.716 19.4992C13.7273 19.4997 13.7386 19.5 13.75 19.5C13.7629 19.5 13.7757 19.4997 13.7884 19.499C15.1724 19.4948 16.3107 19.4717 17.239 19.3469C18.4114 19.1892 19.3604 18.8571 20.1088 18.1088C20.8571 17.3604 21.1892 16.4114 21.3469 15.239C21.5 14.0998 21.5 12.6442 21.5 10.8065V8.69359C21.5 6.85585 21.5 5.40018 21.3469 4.26098C21.1892 3.08856 20.8571 2.13961 20.1088 1.39124C19.3604 0.642881 18.4114 0.310764 17.239 0.153136C16.3107 0.0283317 15.1724 0.00523165 13.7884 0.000964368C13.7757 0.000324231 13.7629 3.07211e-07 13.75 3.07211e-07C13.7386 3.07211e-07 13.7273 0.000254827 13.716 0.000758494C13.4237 -4.85836e-06 13.1207 -2.32233e-06 12.8064 3.07211e-07H8.69358ZM13 1.50002C12.9177 1.5 12.8344 1.5 12.75 1.5H8.75C6.84318 1.5 5.48851 1.50159 4.46085 1.63976C3.45476 1.77503 2.87511 2.02869 2.4519 2.4519C2.02869 2.87511 1.77503 3.45476 1.63976 4.46085C1.50159 5.48851 1.5 6.84318 1.5 8.75V10.75C1.5 12.6568 1.50159 14.0115 1.63976 15.0392C1.77503 16.0452 2.02869 16.6249 2.4519 17.0481C2.87511 17.4713 3.45476 17.725 4.46085 17.8602C5.48851 17.9984 6.84318 18 8.75 18H12.75C12.8344 18 12.9177 18 13 18L13 1.50002ZM14.5 17.9943C15.5336 17.9834 16.3582 17.9518 17.0392 17.8602C18.0452 17.725 18.6249 17.4713 19.0481 17.0481C19.4713 16.6249 19.725 16.0452 19.8602 15.0392C19.9984 14.0115 20 12.6568 20 10.75V8.75C20 6.84318 19.9984 5.48851 19.8602 4.46085C19.725 3.45476 19.4713 2.87511 19.0481 2.4519C18.6249 2.02869 18.0452 1.77503 17.0392 1.63976C16.3582 1.54821 15.5336 1.51662 14.5 1.50573L14.5 17.9943Z" fill="#6F6F6F"/>
</svg>
