<svg width="18" height="18" viewBox="0 0 18 18" fill="none" xmlns="http://www.w3.org/2000/svg">
<path d="M12.7189 7.3125C12.4082 7.3125 12.1564 7.06066 12.1564 6.75L12.1564 1.5C12.1564 1.18934 12.4082 0.9375 12.7189 0.9375C13.0296 0.9375 13.2814 1.18934 13.2814 1.5L13.2814 6.75C13.2814 7.06066 13.0296 7.3125 12.7189 7.3125Z" fill="white"/>
<path fill-rule="evenodd" clip-rule="evenodd" d="M5.25 4.3125C6.8033 4.3125 8.0625 5.5717 8.0625 7.125C8.0625 8.6783 6.8033 9.9375 5.25 9.9375C3.6967 9.9375 2.4375 8.6783 2.4375 7.125C2.4375 5.5717 3.6967 4.3125 5.25 4.3125ZM6.9375 7.125C6.9375 6.19302 6.18198 5.4375 5.25 5.4375C4.31802 5.4375 3.5625 6.19302 3.5625 7.125C3.5625 8.05698 4.31802 8.8125 5.25 8.8125C6.18198 8.8125 6.9375 8.05698 6.9375 7.125Z" fill="white"/>
<path fill-rule="evenodd" clip-rule="evenodd" d="M12.75 13.6875C14.3033 13.6875 15.5625 12.4283 15.5625 10.875C15.5625 9.3217 14.3033 8.0625 12.75 8.0625C11.1967 8.0625 9.9375 9.3217 9.9375 10.875C9.9375 12.4283 11.1967 13.6875 12.75 13.6875ZM14.4375 10.875C14.4375 11.807 13.682 12.5625 12.75 12.5625C11.818 12.5625 11.0625 11.807 11.0625 10.875C11.0625 9.94302 11.818 9.1875 12.75 9.1875C13.682 9.1875 14.4375 9.94302 14.4375 10.875Z" fill="white"/>
<path d="M4.65639 11.25C4.65639 10.9393 4.90823 10.6875 5.21889 10.6875C5.52955 10.6875 5.78139 10.9393 5.78139 11.25V16.5C5.78139 16.8107 5.52955 17.0625 5.21889 17.0625C4.90823 17.0625 4.65639 16.8107 4.65639 16.5V11.25Z" fill="white"/>
<path d="M12.7189 17.0625C12.4082 17.0625 12.1564 16.8107 12.1564 16.5V15C12.1564 14.6893 12.4082 14.4375 12.7189 14.4375C13.0296 14.4375 13.2814 14.6893 13.2814 15V16.5C13.2814 16.8107 13.0296 17.0625 12.7189 17.0625Z" fill="white"/>
<path d="M4.65639 1.5C4.65639 1.18934 4.90823 0.9375 5.21889 0.9375C5.52955 0.9375 5.78139 1.18934 5.78139 1.5V3C5.78139 3.31066 5.52955 3.5625 5.21889 3.5625C4.90823 3.5625 4.65639 3.31066 4.65639 3V1.5Z" fill="white"/>
</svg>
