<svg width="20" height="20" viewBox="0 0 20 20" fill="none" xmlns="http://www.w3.org/2000/svg">
<path fill-rule="evenodd" clip-rule="evenodd" d="M8.28664 1.04297L8.33366 1.04297C8.67884 1.04297 8.95866 1.32279 8.95866 1.66797C8.95866 2.01315 8.67884 2.29297 8.33366 2.29297C6.74464 2.29297 5.61575 2.2943 4.75937 2.40943C3.92096 2.52216 3.43792 2.73355 3.08525 3.08622C2.73257 3.4389 2.52118 3.92194 2.40846 4.76034C2.29332 5.61673 2.29199 6.74562 2.29199 8.33464C2.29199 8.67981 2.01217 8.95964 1.66699 8.95964C1.32181 8.95964 1.04199 8.67981 1.04199 8.33464L1.04199 8.28762C1.04198 6.75616 1.04197 5.54313 1.1696 4.59378C1.30096 3.61676 1.57773 2.82597 2.20136 2.20234C2.825 1.5787 3.61579 1.30194 4.59281 1.17058C5.54215 1.04295 6.75518 1.04296 8.28664 1.04297ZM15.2413 2.40943C14.3849 2.2943 13.256 2.29297 11.667 2.29297C11.3218 2.29297 11.042 2.01315 11.042 1.66797C11.042 1.32279 11.3218 1.04297 11.667 1.04297L11.714 1.04297C13.2455 1.04296 14.4585 1.04295 15.4078 1.17058C16.3849 1.30194 17.1757 1.5787 17.7993 2.20234C18.4229 2.82597 18.6997 3.61676 18.831 4.59378C18.9587 5.54313 18.9587 6.75616 18.9587 8.28763V8.33464C18.9587 8.67981 18.6788 8.95964 18.3337 8.95964C17.9885 8.95964 17.7087 8.67981 17.7087 8.33464C17.7087 6.74562 17.7073 5.61673 17.5922 4.76034C17.4795 3.92194 17.2681 3.4389 16.9154 3.08622C16.5627 2.73355 16.0797 2.52216 15.2413 2.40943ZM1.66699 11.043C2.01217 11.043 2.29199 11.3228 2.29199 11.668C2.29199 13.257 2.29332 14.3859 2.40846 15.2423C2.52118 16.0807 2.73257 16.5637 3.08525 16.9164C3.43792 17.2691 3.92096 17.4804 4.75937 17.5932C5.61575 17.7083 6.74464 17.7096 8.33366 17.7096C8.67884 17.7096 8.95866 17.9895 8.95866 18.3346C8.95866 18.6798 8.67884 18.9596 8.33366 18.9596H8.28665C6.75518 18.9596 5.54215 18.9597 4.59281 18.832C3.61579 18.7007 2.825 18.4239 2.20136 17.8003C1.57773 17.1766 1.30096 16.3858 1.1696 15.4088C1.04197 14.4595 1.04198 13.2464 1.04199 11.715L1.04199 11.668C1.04199 11.3228 1.32181 11.043 1.66699 11.043ZM18.3337 11.043C18.6788 11.043 18.9587 11.3228 18.9587 11.668V11.715C18.9587 13.2464 18.9587 14.4595 18.831 15.4088C18.6997 16.3858 18.4229 17.1766 17.7993 17.8003C17.1757 18.4239 16.3849 18.7007 15.4078 18.832C14.4585 18.9597 13.2455 18.9596 11.714 18.9596H11.667C11.3218 18.9596 11.042 18.6798 11.042 18.3346C11.042 17.9895 11.3218 17.7096 11.667 17.7096C13.256 17.7096 14.3849 17.7083 15.2413 17.5932C16.0797 17.4804 16.5627 17.2691 16.9154 16.9164C17.2681 16.5637 17.4795 16.0807 17.5922 15.2423C17.7073 14.3859 17.7087 13.257 17.7087 11.668C17.7087 11.3228 17.9885 11.043 18.3337 11.043Z" fill="white"/>
</svg>
